<svg width="35" height="35" viewBox="0 0 35 35" fill="none" xmlns="http://www.w3.org/2000/svg">
<rect width="35" height="35" rx="6" fill="#588A58"/>
<path d="M6.5 26.5C5.57174 26.5 4.6815 26.1313 4.02513 25.4749C3.36875 24.8185 3 23.9283 3 23L3 12.5C3 11.5717 3.36875 10.6815 4.02513 10.0251C4.6815 9.36875 5.57174 9 6.5 9H27.5C28.4283 9 29.3185 9.36875 29.9749 10.0251C30.6313 10.6815 31 11.5717 31 12.5V23C31 23.9283 30.6313 24.8185 29.9749 25.4749C29.3185 26.1313 28.4283 26.5 27.5 26.5H6.5ZM25.75 16C25.2859 16 24.8408 16.1844 24.5126 16.5126C24.1844 16.8408 24 17.2859 24 17.75C24 18.2141 24.1844 18.6592 24.5126 18.9874C24.8408 19.3156 25.2859 19.5 25.75 19.5C26.2141 19.5 26.6592 19.3156 26.9874 18.9874C27.3156 18.6592 27.5 18.2141 27.5 17.75C27.5 17.2859 27.3156 16.8408 26.9874 16.5126C26.6592 16.1844 26.2141 16 25.75 16Z" fill="#083645"/>
</svg>
