<svg width="30" height="28" viewBox="0 0 30 28" fill="none" xmlns="http://www.w3.org/2000/svg">
<path d="M22.8939 22.3836L23.8718 21.4896C28.3962 21.6256 28.4658 21.4796 28.6646 21.0516L29.9076 18.2666L30 18.0026L29.899 17.7716C29.8457 17.6496 29.6816 17.2856 26.8566 14.8066V13.5026C30.1163 10.6126 30.0467 10.4646 29.8609 10.0416L28.6233 7.22758C28.4375 6.80558 28.3669 6.64058 23.875 6.75358L22.8971 5.82358C22.9981 4.45368 22.9468 3.07788 22.7439 1.71758L22.6179 1.45458L19.3865 0.154579C18.9105 -0.0454207 18.7432 -0.117421 15.6921 2.94058L14.3209 2.92158C11.1796 -0.164421 11.0308 -0.108421 10.5603 0.0665792L7.55596 1.18458C7.08548 1.35958 6.91923 1.42158 7.10178 5.62158L6.13147 6.51158C1.6092 6.37558 1.53966 6.52358 1.34299 6.94958L0.0977908 9.73558L0 10.0026L0.102137 10.2346C0.155379 10.3546 0.31293 10.7146 3.14451 13.1966V14.4966C-0.115175 17.3866 -0.044549 17.5346 0.14234 17.9586L1.37885 20.7756C1.56791 21.2066 1.63528 21.3596 6.12604 21.2516L7.10395 22.1866C7.00259 23.5544 7.05246 24.9281 7.25281 26.2866L7.37885 26.5516L10.6309 27.8596C11.1036 28.0416 11.2677 28.1066 14.31 25.0596L15.6813 25.0756C18.8269 28.1656 18.9877 28.1056 19.4473 27.9346L22.4451 26.8196C22.9189 26.6466 23.084 26.5856 22.8939 22.3836ZM10.0094 15.8596C9.63027 14.9476 9.55221 13.9529 9.78503 13.0003C10.0178 12.0477 10.5512 11.1796 11.3181 10.5049C12.085 9.83016 13.0514 9.37894 14.0959 9.20782C15.1404 9.0367 16.2166 9.1533 17.1894 9.54299C18.1622 9.93268 18.9883 10.5781 19.564 11.3983C20.1397 12.2184 20.4394 13.1768 20.4255 14.1532C20.4115 15.1295 20.0846 16.0803 19.4857 16.8863C18.8868 17.6923 18.0426 18.3175 17.059 18.6836C15.7171 19.1665 14.2218 19.1406 12.9006 18.6113C11.5794 18.082 10.5398 17.0926 10.0094 15.8596Z" fill="white"/>
</svg>
