<svg width="18" height="21" viewBox="0 0 18 21" fill="none" xmlns="http://www.w3.org/2000/svg">
<path d="M17.9168 8.49403L15.9787 6.55664C15.9519 6.52979 15.9201 6.50848 15.8851 6.49395C15.8501 6.47941 15.8125 6.47192 15.7746 6.47192C15.7367 6.47192 15.6991 6.47941 15.6641 6.49395C15.6291 6.50848 15.5973 6.52979 15.5705 6.55664L10.2672 11.8592L10.2778 11.8698L10.2609 11.8651L9.53503 14.5737L9.53715 14.5742C9.51876 14.6272 9.51651 14.6845 9.53067 14.7388C9.54482 14.7932 9.57475 14.8421 9.61668 14.8794C9.65861 14.9167 9.71066 14.9408 9.76626 14.9486C9.82186 14.9564 9.87852 14.9475 9.92909 14.9231L9.92956 14.9252L12.6102 14.2069L12.6086 14.2005L12.613 14.205L17.9165 8.90171C17.9705 8.8476 18.0008 8.77433 18.0008 8.69792C18.0009 8.62151 17.9707 8.5482 17.9168 8.49403ZM10.4175 14.0484L10.8487 12.4407L12.0257 13.6177L10.4175 14.0484Z" fill="#020E12"/>
<path d="M14.1592 15.5825H12.4017C12.3252 15.5826 12.2516 15.6131 12.1976 15.6672C12.1435 15.7213 12.1131 15.7946 12.113 15.8711L12.1135 15.8739V17.9205H2.33403V3.50703H3.5075V4.22774C3.50703 4.23549 3.50515 4.24253 3.50515 4.25052C3.50515 4.48488 3.69537 4.67651 3.93114 4.67651L3.93443 4.67627V4.67815H10.5162C10.629 4.67803 10.7373 4.63313 10.8171 4.55332C10.8969 4.4735 10.9418 4.36528 10.9419 4.2524C10.9419 4.24887 10.941 4.24559 10.941 4.24206V3.50703H12.1133V5.55432L12.1128 5.55714C12.1127 5.59504 12.1202 5.63258 12.1346 5.66761C12.1491 5.70264 12.1703 5.73447 12.1971 5.76128C12.2239 5.78809 12.2557 5.80935 12.2907 5.82384C12.3258 5.83834 12.3633 5.84579 12.4012 5.84575H14.1589C14.2354 5.84569 14.3087 5.81529 14.3628 5.76122C14.4168 5.70715 14.4472 5.63384 14.4473 5.55738V2.43876H14.4428C14.4431 2.42726 14.4464 2.41645 14.4464 2.40471C14.4464 2.07821 14.3167 1.76506 14.0859 1.53409C13.8551 1.30313 13.5421 1.17325 13.2156 1.173C13.2062 1.173 13.1977 1.17559 13.1883 1.17582H9.76985V0.376441C9.76985 0.169551 9.60218 0.00234833 9.39576 0.00187866V0H5.06305V0.00140902C5.05953 0.00140902 5.05647 0.000469636 5.05295 0.000469636C4.84629 0.000469636 4.67862 0.167907 4.67862 0.374797L4.67933 0.381842V1.17559H1.2357L1.23101 1.17512C0.904597 1.17549 0.591667 1.30534 0.360882 1.53616C0.130098 1.76699 0.000310772 2.07995 0 2.40636C0 2.41739 0.00305284 2.42749 0.00328768 2.43853H0V19.0113V19.0177C6.16591e-05 19.1793 0.0319592 19.3393 0.0938711 19.4886C0.155783 19.6379 0.246496 19.7735 0.360831 19.8877C0.475165 20.002 0.610881 20.0925 0.760227 20.1543C0.909574 20.2161 1.06963 20.2478 1.23124 20.2477C1.24956 20.2477 1.2667 20.243 1.28502 20.2423V20.2473H13.1442C13.1672 20.2484 13.1891 20.2541 13.2123 20.2541C13.5385 20.254 13.8514 20.1244 14.0821 19.8937C14.3128 19.6631 14.4425 19.3502 14.4426 19.024C14.4426 19.0195 14.4414 19.0156 14.4414 19.0111H14.448V15.8709C14.448 15.833 14.4405 15.7954 14.4259 15.7604C14.4114 15.7254 14.3901 15.6936 14.3633 15.6669C14.3365 15.6401 14.3047 15.6188 14.2696 15.6044C14.2346 15.5899 14.1971 15.5825 14.1592 15.5825Z" fill="#020E12"/>
</svg>
