<svg width="150" height="151" viewBox="0 0 150 151" fill="none" xmlns="http://www.w3.org/2000/svg">
<ellipse cx="75" cy="75.0779" rx="75" ry="75.0779" fill="#8BE855"/>
<ellipse cx="75.1222" cy="75.0773" rx="67.2414" ry="67.3112" fill="#F79517"/>
<g clip-path="url(#clip0_399_3314)">
<path d="M40.108 59.476L41.8864 52.5154C42.2286 51.1797 43.0149 50.5315 44.2128 50.5315H48.6276L49.5528 46.961H44.1111C41.3035 46.961 39.6269 48.1163 39.0118 50.4609L36.7176 59.4787H34.5945L33.7388 62.9054H35.8272L33.0195 73.9776H36.4423L39.2499 62.9054H44.3517L45.2074 59.4787H40.108V59.476Z" fill="white"/>
<path d="M51.8826 46.961L45.0371 73.9776H48.4598L55.3053 46.961H51.8826Z" fill="white"/>
<path d="M66.9071 50.3877L67.7627 46.961H57.4251L56.5694 50.3877H60.0269L54.0371 73.9776H57.4598L63.4496 50.3877H66.9071Z" fill="white"/>
<path d="M73.5472 46.6003C70.8091 46.6003 69.0283 47.8628 68.4132 50.3146L62.3887 73.9751H65.8114L71.4936 51.6843C71.7342 50.6753 72.3146 50.1682 73.2397 50.1682C74.7129 50.1682 75.2264 50.8531 74.8816 52.1887L69.3383 73.9751H72.761L78.2026 52.5129C79.1947 48.6208 77.5875 46.6003 73.5472 46.6003Z" fill="white"/>
<path d="M85.1837 52.5154C85.5259 51.1797 86.2799 50.5315 87.4779 50.5315H91.8927L92.8178 46.961H87.3762C84.5711 46.961 82.8919 48.1163 82.2768 50.4609L80.3596 58.0724H78.2365L77.3809 61.4992H79.4692L77.8273 67.9919C76.8005 71.9963 78.2365 73.9802 82.071 73.9802H85.9724L86.8281 70.5535H82.7555C81.3517 70.5535 80.8383 69.7589 81.2153 68.2089L82.9267 61.4992H87.9591L88.8147 58.0724H83.7823L85.1837 52.5154Z" fill="white"/>
<path d="M98.6688 58.7913L97.1285 57.9627C96.067 57.3851 95.6577 56.5199 95.9653 55.3306L96.8904 51.6869C97.1633 50.7485 97.8478 50.1708 98.7729 50.1708C99.9709 50.1708 100.519 50.9289 100.244 52.1913L99.8345 53.9583H103.257L103.599 52.5155C104.487 48.8012 102.744 46.6003 98.9441 46.6003C96.3076 46.6003 94.4276 47.97 93.81 50.3146L92.5103 55.4717C91.858 58.0333 92.612 59.8368 94.6309 60.8824L96.1364 61.677C97.0963 62.2546 97.4708 63.1564 97.1285 64.4895L95.9653 69.2519C95.69 70.2608 95.0402 70.7679 94.0481 70.7679C92.7832 70.7679 92.2697 70.0831 92.5773 68.7474L93.1602 66.2225H89.7374L89.224 68.4233C88.3336 72.3179 89.9086 74.3384 93.8794 74.3384C96.6523 74.3384 98.5001 72.8224 99.2194 69.9027L100.588 64.4921C101.271 61.7502 100.621 59.91 98.6688 58.7913Z" fill="white"/>
<path d="M111.504 46.6003C108.867 46.6003 106.987 47.97 106.37 50.3146L105.07 55.4717C104.42 58.0333 105.172 59.8368 107.193 60.8824L108.698 61.677C109.658 62.2546 110.033 63.1564 109.691 64.4895L108.527 69.2519C108.255 70.2608 107.605 70.7679 106.61 70.7679C105.345 70.7679 104.832 70.0831 105.139 68.7474L105.72 66.2225H102.297L101.784 68.4233C100.893 72.3179 102.468 74.3384 106.439 74.3384C109.212 74.3384 111.06 72.8224 111.779 69.9027L113.148 64.4921C113.833 61.7502 113.183 59.91 111.231 58.7939L109.691 57.9653C108.629 57.3877 108.22 56.5225 108.527 55.3332L109.452 51.6895C109.728 50.7511 110.41 50.1735 111.335 50.1735C112.533 50.1735 113.081 50.9315 112.806 52.194L112.397 53.9609H115.819L116.162 52.5181C117.049 48.8012 115.303 46.6003 111.504 46.6003Z" fill="white"/>
<path d="M62.2351 78.8319C59.7747 78.8319 58.1948 79.9532 57.6491 82.1279L53.5791 98.1978C52.6986 101.656 54.1247 103.446 57.7409 103.446C60.2013 103.446 61.7514 102.325 62.2971 100.15L64.817 90.2596H60.169L59.4101 93.2995H60.99L59.5316 98.9323C59.3183 99.8289 58.7429 100.276 57.8922 100.276C56.7389 100.276 56.2528 99.6668 56.5553 98.4827L60.3823 83.3408C60.5956 82.4442 61.2033 81.9972 62.0838 81.9972C63.2073 81.9972 63.6339 82.6063 63.3909 83.7903L63.056 85.3586H66.0621L66.3349 84.0779C67.0666 80.625 65.6677 78.8319 62.2351 78.8319Z" fill="#38383A"/>
<path d="M79.0628 79.1532H76.0245L73.5939 88.5631C73.3806 89.4596 72.8027 89.9066 71.9842 89.9066C70.7689 89.9066 70.3125 89.2975 70.6176 88.1135L72.9267 79.1506H69.9206L67.6413 87.8259C66.9419 90.4189 67.6115 92.0839 69.5238 92.7557L66.9121 103.127H69.9504L72.5026 93.0432C74.5066 92.8524 75.8434 91.7624 76.3296 89.7785L79.0628 79.1532Z" fill="#38383A"/>
<path d="M90.971 78.8319C89.4531 78.8319 88.2974 79.6971 87.5384 81.3934C87.4169 79.6971 86.4446 78.8319 84.6539 78.8319C82.7416 78.8319 81.4346 79.9532 80.8864 82.1279L75.5713 103.128H78.6096L83.6519 83.0245C83.8032 82.3527 84.1975 81.9999 84.8052 81.9999C85.5641 81.9999 85.8072 82.6089 85.5046 83.7929L80.6136 103.128H83.6519L88.7537 83.0245C88.905 82.3527 89.2994 81.9999 89.907 81.9999C90.6362 81.9999 90.847 82.6089 90.5444 83.7929L85.6534 103.128H88.6917L93.491 84.0805C94.3739 80.625 93.491 78.8319 90.971 78.8319Z" fill="#38383A"/>
<path d="M38.6224 77.747H33.0195V103.556H38.6224V77.747Z" fill="#38383A"/>
<path d="M52.2929 87.3712H45.0804V77.747H39.4775V103.556H45.0804V93.9319H50.5816L52.2929 87.3712Z" fill="#38383A"/>
<path d="M32.8062 93.263C34.5664 93.263 35.9933 91.7592 35.9933 89.9042C35.9933 88.0492 34.5664 86.5454 32.8062 86.5454C31.0461 86.5454 29.6191 88.0492 29.6191 89.9042C29.6191 91.7592 31.0461 93.263 32.8062 93.263Z" fill="#38383A"/>
<path d="M113.85 77.747H108.247V103.556H113.85V77.747Z" fill="#38383A"/>
<path d="M101.789 77.747V87.3712H95.9823L94.2734 93.9319H101.789V103.556H107.391V77.747H101.789Z" fill="#38383A"/>
<path d="M116.975 89.9042C116.975 91.76 115.549 93.263 113.788 93.263C112.027 93.263 110.599 91.76 110.599 89.9042C110.599 88.0483 112.027 86.5454 113.788 86.5454C115.547 86.5454 116.975 88.0483 116.975 89.9042Z" fill="#38383A"/>
</g>
<defs>
<clipPath id="clip0_399_3314">
<rect width="87.3563" height="56.9556" fill="white" transform="translate(29.6191 46.6003)"/>
</clipPath>
</defs>
</svg>
