<svg width="32" height="30" viewBox="0 0 32 30" fill="none" xmlns="http://www.w3.org/2000/svg">
<path fill-rule="evenodd" clip-rule="evenodd" d="M0 15C0 11.0218 1.68571 7.20644 4.68629 4.3934C7.68687 1.58035 11.7565 0 16 0C20.2435 0 24.3131 1.58035 27.3137 4.3934C30.3143 7.20644 32 11.0218 32 15C32 18.9782 30.3143 22.7936 27.3137 25.6066C24.3131 28.4196 20.2435 30 16 30C11.7565 30 7.68687 28.4196 4.68629 25.6066C1.68571 22.7936 0 18.9782 0 15H0ZM15.0869 21.42L24.2987 10.624L22.6347 9.376L14.7797 18.578L9.216 14.232L7.85067 15.768L15.0869 21.422V21.42Z" fill="#8BE855"/>
</svg>
