<svg width="32" height="31" viewBox="0 0 32 31" fill="none" xmlns="http://www.w3.org/2000/svg">
<path d="M8 0.96875C8 0.711821 7.89464 0.465416 7.70711 0.28374C7.51957 0.102064 7.26522 0 7 0C6.73478 0 6.48043 0.102064 6.29289 0.28374C6.10536 0.465416 6 0.711821 6 0.96875V1.9375H4C2.93913 1.9375 1.92172 2.34576 1.17157 3.07246C0.421427 3.79916 0 4.78479 0 5.8125L0 7.75H32V5.8125C32 4.78479 31.5786 3.79916 30.8284 3.07246C30.0783 2.34576 29.0609 1.9375 28 1.9375H26V0.96875C26 0.711821 25.8946 0.465416 25.7071 0.28374C25.5196 0.102064 25.2652 0 25 0C24.7348 0 24.4804 0.102064 24.2929 0.28374C24.1054 0.465416 24 0.711821 24 0.96875V1.9375H8V0.96875ZM32 27.125V9.6875H0V27.125C0 28.1527 0.421427 29.1383 1.17157 29.865C1.92172 30.5917 2.93913 31 4 31H28C29.0609 31 30.0783 30.5917 30.8284 29.865C31.5786 29.1383 32 28.1527 32 27.125ZM19 13.5625H21C21.2652 13.5625 21.5196 13.6646 21.7071 13.8462C21.8946 14.0279 22 14.2743 22 14.5312V16.4688C22 16.7257 21.8946 16.9721 21.7071 17.1538C21.5196 17.3354 21.2652 17.4375 21 17.4375H19C18.7348 17.4375 18.4804 17.3354 18.2929 17.1538C18.1054 16.9721 18 16.7257 18 16.4688V14.5312C18 14.2743 18.1054 14.0279 18.2929 13.8462C18.4804 13.6646 18.7348 13.5625 19 13.5625ZM25 13.5625H27C27.2652 13.5625 27.5196 13.6646 27.7071 13.8462C27.8946 14.0279 28 14.2743 28 14.5312V16.4688C28 16.7257 27.8946 16.9721 27.7071 17.1538C27.5196 17.3354 27.2652 17.4375 27 17.4375H25C24.7348 17.4375 24.4804 17.3354 24.2929 17.1538C24.1054 16.9721 24 16.7257 24 16.4688V14.5312C24 14.2743 24.1054 14.0279 24.2929 13.8462C24.4804 13.6646 24.7348 13.5625 25 13.5625ZM4 20.3438C4 20.0868 4.10536 19.8404 4.29289 19.6587C4.48043 19.4771 4.73478 19.375 5 19.375H7C7.26522 19.375 7.51957 19.4771 7.70711 19.6587C7.89464 19.8404 8 20.0868 8 20.3438V22.2812C8 22.5382 7.89464 22.7846 7.70711 22.9663C7.51957 23.1479 7.26522 23.25 7 23.25H5C4.73478 23.25 4.48043 23.1479 4.29289 22.9663C4.10536 22.7846 4 22.5382 4 22.2812V20.3438ZM11 19.375H13C13.2652 19.375 13.5196 19.4771 13.7071 19.6587C13.8946 19.8404 14 20.0868 14 20.3438V22.2812C14 22.5382 13.8946 22.7846 13.7071 22.9663C13.5196 23.1479 13.2652 23.25 13 23.25H11C10.7348 23.25 10.4804 23.1479 10.2929 22.9663C10.1054 22.7846 10 22.5382 10 22.2812V20.3438C10 20.0868 10.1054 19.8404 10.2929 19.6587C10.4804 19.4771 10.7348 19.375 11 19.375Z" fill="#8BE855"/>
</svg>
