<svg width="43" height="43" viewBox="0 0 43 43" fill="none" xmlns="http://www.w3.org/2000/svg">
<circle cx="21.5" cy="21.5" r="21.5" fill="#6AE056"/>
<path d="M21.4997 32.25C20.8581 32.2472 20.2434 32.0201 19.7886 31.6178C19.3337 31.2155 19.0752 30.6703 19.0689 30.1H23.9064C23.9089 30.3874 23.8473 30.6724 23.725 30.9385C23.5686 31.2575 23.3291 31.5389 23.0263 31.7594C22.7235 31.98 22.3661 32.1334 21.9835 32.207H21.9266C21.7861 32.233 21.6432 32.2474 21.4997 32.25ZM31.1747 29.025H11.8247V26.875L14.2435 25.8V19.8875C14.1797 18.3708 14.5651 16.8658 15.3609 15.523C15.7526 14.9073 16.2866 14.3724 16.9278 13.9537C17.5691 13.5349 18.3029 13.2417 19.081 13.0935V10.75H23.9185V13.0935C27.0374 13.7536 28.756 16.1659 28.756 19.8875V25.8L31.1747 26.875V29.025Z" fill="#041D25"/>
</svg>
