<svg width="32" height="24" viewBox="0 0 32 24" fill="none" xmlns="http://www.w3.org/2000/svg">
<path d="M0 4C0 2.93913 0.421427 1.92172 1.17157 1.17157C1.92172 0.421427 2.93913 0 4 0H28C29.0609 0 30.0783 0.421427 30.8284 1.17157C31.5786 1.92172 32 2.93913 32 4V6H0V4ZM0 10V20C0 21.0609 0.421427 22.0783 1.17157 22.8284C1.92172 23.5786 2.93913 24 4 24H28C29.0609 24 30.0783 23.5786 30.8284 22.8284C31.5786 22.0783 32 21.0609 32 20V10H0ZM6 14H8C8.53043 14 9.03914 14.2107 9.41421 14.5858C9.78929 14.9609 10 15.4696 10 16V18C10 18.5304 9.78929 19.0391 9.41421 19.4142C9.03914 19.7893 8.53043 20 8 20H6C5.46957 20 4.96086 19.7893 4.58579 19.4142C4.21071 19.0391 4 18.5304 4 18V16C4 15.4696 4.21071 14.9609 4.58579 14.5858C4.96086 14.2107 5.46957 14 6 14V14Z" fill="#8BE855"/>
</svg>
