<svg width="35" height="35" viewBox="0 0 35 35" fill="none" xmlns="http://www.w3.org/2000/svg">
<rect width="35" height="35" rx="6" fill="#588A58"/>
<path d="M28 14.608V22.75C28.0001 23.5801 27.6824 24.3788 27.1123 24.9822C26.5422 25.5856 25.7628 25.948 24.934 25.995L24.75 26H11.25C10.4199 26.0001 9.62117 25.6824 9.01777 25.1123C8.41437 24.5422 8.052 23.7628 8.005 22.934L8 22.75V14.608L17.652 19.664C17.7594 19.7202 17.8788 19.7496 18 19.7496C18.1212 19.7496 18.2406 19.7202 18.348 19.664L28 14.608ZM11.25 10H24.75C25.5556 9.9999 26.3325 10.299 26.93 10.8393C27.5276 11.3795 27.9032 12.1225 27.984 12.924L18 18.154L8.016 12.924C8.09352 12.1543 8.44305 11.4375 9.00175 10.9025C9.56045 10.3674 10.2917 10.0492 11.064 10.005L11.25 10H24.75H11.25Z" fill="#083645"/>
</svg>
