<svg width="27" height="28" viewBox="0 0 27 28" fill="none" xmlns="http://www.w3.org/2000/svg">
<path d="M17.4853 3.03734C19.1456 4.71776 20.1847 6.92354 20.4289 9.2857C20.6731 11.6479 20.1075 14.0232 18.8268 16.0143C19.0504 16.2026 19.2367 16.4098 19.4975 16.5981C19.8701 16.8995 20.3732 17.2762 21.0066 17.7094C21.6401 18.1614 22.05 18.4439 22.2363 18.5946C23.0188 19.1785 23.5964 19.6682 23.9876 20.0637C24.5838 20.6664 25.1055 21.2879 25.5526 21.9471C26.0184 22.6063 26.3724 23.2467 26.6519 23.9059C26.9127 24.5651 27.0431 25.1866 26.9872 25.7893C26.95 26.392 26.7264 26.9006 26.3165 27.3149C25.9066 27.7293 25.4036 27.9553 24.8074 27.993C24.2298 28.0306 23.5964 27.9176 22.9629 27.6351C22.3108 27.3714 21.6587 26.9947 21.0253 26.5239C20.3732 26.0719 19.7583 25.5445 19.1621 24.9418C18.7709 24.5463 18.2865 23.9624 17.7275 23.1902C17.5412 22.9453 17.2618 22.531 16.8519 21.9471C16.442 21.3444 16.1066 20.8736 15.8085 20.478C15.5104 20.1013 15.2682 19.8188 14.9888 19.5363C13.0549 20.5599 10.8484 20.9329 8.69035 20.6009C6.5323 20.269 4.53539 19.2493 2.9903 17.6905C-0.996767 13.6411 -0.996767 7.06791 2.9903 3.03734C3.94165 2.07446 5.07142 1.3106 6.315 0.789428C7.55859 0.268256 8.8916 0 10.2378 0C11.584 0 12.917 0.268256 14.1606 0.789428C15.4042 1.3106 16.534 2.07446 17.4853 3.03734ZM14.8583 15.016C16.0755 13.7766 16.7585 12.101 16.7585 10.3545C16.7585 8.60806 16.0755 6.93243 14.8583 5.693C14.2534 5.07968 13.5348 4.59306 12.7435 4.26103C11.9522 3.929 11.1039 3.75809 10.2471 3.75809C9.3904 3.75809 8.54208 3.929 7.7508 4.26103C6.95952 4.59306 6.24083 5.07968 5.63592 5.693C5.02922 6.30451 4.54785 7.03104 4.21941 7.83095C3.89096 8.63086 3.72189 9.48844 3.72189 10.3545C3.72189 11.2206 3.89096 12.0782 4.21941 12.8781C4.54785 13.678 5.02922 14.4045 5.63592 15.016C6.24083 15.6294 6.95952 16.116 7.7508 16.448C8.54208 16.7801 9.3904 16.951 10.2471 16.951C11.1039 16.951 11.9522 16.7801 12.7435 16.448C13.5348 16.116 14.2534 15.6294 14.8583 15.016Z" fill="#8BE855"/>
</svg>
