<svg width="35" height="35" viewBox="0 0 35 35" fill="none" xmlns="http://www.w3.org/2000/svg">
<rect width="35" height="35" rx="6" fill="#588A58"/>
<path d="M12.029 25.7675L12.402 25.954C13.9561 26.8864 15.6966 27.3216 17.4372 27.3216C22.9075 27.3216 27.3831 22.8459 27.3831 17.3756C27.3831 14.7648 26.3263 12.2162 24.4615 10.3513C22.5966 8.4864 20.1101 7.42969 17.4372 7.42969C11.9669 7.42969 7.49117 11.9054 7.55337 17.4378C7.55337 19.3026 8.11283 21.1054 9.04523 22.6594L9.29386 23.0324L8.29935 26.7L12.029 25.7675Z" fill="#083645"/>
<path d="M25.5189 9.35675C23.4054 7.18112 20.4838 6 17.5 6C11.1595 6 6.0622 11.1594 6.12431 17.4378C6.12431 19.427 6.68377 21.3541 7.61626 23.0946L6 29L12.0297 27.4459C13.7081 28.3784 15.5729 28.8136 17.4379 28.8136C23.7162 28.8136 28.8136 23.654 28.8136 17.3758C28.8136 14.3298 27.6324 11.4703 25.5189 9.35675ZM17.5 26.8866C15.8216 26.8866 14.1432 26.4515 12.7135 25.5812L12.3406 25.3947L8.73518 26.3271L9.66758 22.7839L9.41895 22.4109C6.68377 17.9974 7.98921 12.154 12.4649 9.41886C16.9405 6.68377 22.7216 7.98921 25.4568 12.4649C28.1919 16.9405 26.8865 22.7216 22.4109 25.4568C20.9811 26.3892 19.2406 26.8866 17.5 26.8866ZM22.9703 19.9866L22.2865 19.6758C22.2865 19.6758 21.292 19.2407 20.6703 18.9298C20.6081 18.9298 20.546 18.8676 20.4838 18.8676C20.2973 18.8676 20.173 18.9298 20.0487 18.992C20.0487 18.992 19.9865 19.0542 19.1163 20.0488C19.0541 20.1731 18.9297 20.2353 18.8054 20.2353H18.7432C18.6811 20.2353 18.5568 20.1731 18.4946 20.111L18.1838 19.9866C17.5 19.6758 16.8784 19.3028 16.3811 18.8055C16.2568 18.6812 16.0703 18.5569 15.9459 18.4326C15.5108 17.9974 15.0756 17.5001 14.7649 16.9406L14.7027 16.8163C14.6406 16.7541 14.6406 16.692 14.5784 16.5677C14.5784 16.4434 14.5784 16.3191 14.6406 16.2569C14.6406 16.2569 14.8892 15.946 15.0757 15.7596C15.2001 15.6352 15.2622 15.4488 15.3865 15.3245C15.5108 15.1379 15.573 14.8893 15.5108 14.7028C15.4487 14.392 14.7027 12.7136 14.5163 12.3406C14.3919 12.1541 14.2677 12.092 14.0811 12.0298H13.3974C13.273 12.0298 13.1487 12.092 13.0243 12.092L12.9621 12.1541C12.8378 12.2163 12.7135 12.3406 12.5892 12.4028C12.4649 12.5272 12.4027 12.6514 12.2784 12.7758C11.8432 13.3353 11.5946 14.019 11.5946 14.7028C11.5946 15.2001 11.7189 15.6974 11.9054 16.1325L11.9676 16.3191C12.5271 17.5001 13.273 18.5569 14.2677 19.4893L14.5163 19.7379C14.7027 19.9244 14.8892 20.0488 15.0135 20.2352C16.319 21.3542 17.8108 22.1623 19.4892 22.5974C19.6757 22.6595 19.9243 22.6595 20.1109 22.7217H20.7324C21.0433 22.7217 21.4162 22.5974 21.6649 22.4731C21.8514 22.3488 21.9757 22.3488 22.1 22.2245L22.2244 22.1001C22.3487 21.9758 22.473 21.9136 22.5973 21.7893C22.7216 21.665 22.846 21.5407 22.9082 21.4163C23.0325 21.1677 23.0946 20.8568 23.1568 20.5461V20.111C23.1568 20.111 23.0946 20.0488 22.9703 19.9866Z" fill="#588A58"/>
</svg>
