<svg width="410" height="62" viewBox="0 0 410 62" fill="none" xmlns="http://www.w3.org/2000/svg">
<path d="M16.3731 28.9044L20.4807 13.4041C21.2712 10.4298 23.0873 8.98632 25.8543 8.98632H36.0517L38.1885 1.0354H25.6194C19.1344 1.0354 15.2617 3.6081 13.8409 8.82916L8.54172 28.9102H3.63782L1.66137 36.541H6.48506L0 61.197H7.90582L14.3909 36.541H26.1751L28.1516 28.9102H16.3731V28.9044Z" fill="white"/>
<path d="M43.5699 1.0354L27.7583 61.197H35.6641L51.4758 1.0354H43.5699Z" fill="white"/>
<path d="M78.2744 8.66619L80.2508 1.0354H56.373L54.3965 8.66619H62.3825L48.5474 61.197H56.4532L70.2884 8.66619H78.2744Z" fill="white"/>
<path d="M93.6086 0.232056C87.2839 0.232056 83.1706 3.0434 81.7499 8.50311L67.8345 61.1911H75.7403L88.8651 11.5531C89.4208 9.30635 90.7614 8.17716 92.8982 8.17716C96.3012 8.17716 97.487 9.70215 96.6907 12.6765L83.8867 61.1911H91.7926L104.362 13.3982C106.653 4.73137 102.941 0.232056 93.6086 0.232056Z" fill="white"/>
<path d="M120.489 13.4041C121.279 10.4298 123.021 8.98632 125.788 8.98632H135.985L138.122 1.0354H125.553C119.074 1.0354 115.195 3.6081 113.775 8.82916L109.346 25.7787H104.442L102.466 33.4095H107.29L103.497 47.8678C101.125 56.785 104.442 61.2028 113.299 61.2028H122.311L124.287 53.572H114.88C111.638 53.572 110.452 51.8025 111.323 48.3509L115.276 33.4095H126.899L128.876 25.7787H117.252L120.489 13.4041Z" fill="white"/>
<path d="M151.636 27.3793L148.079 25.5341C145.627 24.2478 144.681 22.3212 145.392 19.6728L147.529 11.5589C148.159 9.46933 149.74 8.18298 151.877 8.18298C154.644 8.18298 155.91 9.87095 155.274 12.6823L154.329 16.617H162.235L163.025 13.404C165.076 5.13299 161.049 0.232056 152.272 0.232056C146.182 0.232056 141.84 3.28204 140.413 8.50311L137.411 19.9871C135.905 25.6913 137.646 29.7075 142.31 32.0357L145.787 33.8052C148.004 35.0915 148.869 37.0997 148.079 40.0682L145.392 50.6733C144.756 52.92 143.255 54.0492 140.963 54.0492C138.042 54.0492 136.856 52.5242 137.566 49.5499L138.912 43.9272H131.007L129.821 48.8281C127.764 57.5008 131.402 62.0001 140.574 62.0001C146.979 62.0001 151.247 58.6242 152.908 52.1226L156.07 40.074C157.646 33.9682 156.145 29.8705 151.636 27.3793Z" fill="white"/>
<path d="M181.283 0.232056C175.194 0.232056 170.851 3.28204 169.425 8.50311L166.423 19.9871C164.922 25.6913 166.658 29.7075 171.327 32.0357L174.804 33.8052C177.021 35.0915 177.886 37.0997 177.096 40.0682L174.409 50.6733C173.779 52.92 172.278 54.0492 169.98 54.0492C167.059 54.0492 165.873 52.5242 166.583 49.5499L167.924 43.9272H160.018L158.832 48.8281C156.775 57.5008 160.413 62.0001 169.585 62.0001C175.99 62.0001 180.258 58.6242 181.919 52.1226L185.082 40.074C186.663 33.9682 185.162 29.8705 180.653 27.3851L177.096 25.54C174.644 24.2536 173.698 22.327 174.409 19.6786L176.546 11.5647C177.181 9.47515 178.757 8.1888 180.894 8.1888C183.661 8.1888 184.927 9.87677 184.291 12.6881L183.346 16.6228H191.252L192.042 13.4099C194.093 5.13299 190.06 0.232056 181.283 0.232056Z" fill="white"/>
<path d="M283.511 6.82861C277.828 6.82861 274.179 9.32565 272.918 14.1684L263.517 49.9534C261.483 57.654 264.778 61.6411 273.13 61.6411C278.813 61.6411 282.394 59.1441 283.654 54.3013L289.475 32.2762H278.739L276.986 39.0456H280.635L277.266 51.5889C276.774 53.5854 275.445 54.5807 273.48 54.5807C270.816 54.5807 269.693 53.2245 270.392 50.5878L279.231 16.8691C279.724 14.8727 281.128 13.8773 283.161 13.8773C285.757 13.8773 286.742 15.2335 286.181 17.8703L285.407 21.3626H292.351L292.981 18.5105C294.671 10.8215 291.44 6.82861 283.511 6.82861Z" fill="#38383A"/>
<path d="M322.381 7.5444H315.363L309.749 28.4985C309.256 30.495 307.921 31.4903 306.031 31.4903C303.224 31.4903 302.17 30.1341 302.874 27.4974L308.208 7.53857H301.265L296 26.8571C294.384 32.6311 295.931 36.3388 300.348 37.8347L294.315 60.9308H301.333L307.228 38.475C311.857 38.0501 314.945 35.6229 316.068 31.2051L322.381 7.5444Z" fill="#38383A"/>
<path d="M349.885 6.82886C346.379 6.82886 343.709 8.75547 341.956 12.533C341.675 8.75547 339.43 6.82886 335.293 6.82886C330.877 6.82886 327.857 9.32589 326.591 14.1686L314.314 60.9312H321.332L332.979 16.1651C333.329 14.6692 334.239 13.8834 335.643 13.8834C337.396 13.8834 337.957 15.2396 337.258 17.8763L325.961 60.9312H332.979L344.763 16.1651C345.113 14.6692 346.024 13.8834 347.427 13.8834C349.111 13.8834 349.598 15.2396 348.9 17.8763L337.602 60.9312H344.62L355.705 18.5166C357.745 10.8218 355.705 6.82886 349.885 6.82886Z" fill="#38383A"/>
<path d="M228.972 4.4137H216.031V61.8862H228.972V4.4137Z" fill="#38383A"/>
<path d="M260.55 25.8448H243.89V4.41345H230.949V61.8859H243.89V40.4545H256.597L260.55 25.8448Z" fill="#38383A"/>
<path d="M215.538 38.9642C219.604 38.9642 222.9 35.6155 222.9 31.4847C222.9 27.3539 219.604 24.0052 215.538 24.0052C211.473 24.0052 208.177 27.3539 208.177 31.4847C208.177 35.6155 211.473 38.9642 215.538 38.9642Z" fill="#38383A"/>
<path d="M402.734 4.41345H389.793V61.8859H402.734V4.41345Z" fill="#38383A"/>
<path d="M374.876 4.4137V25.8451H361.464L357.517 40.4548H374.876V61.8862H387.817V4.4137H374.876Z" fill="#38383A"/>
<path d="M409.954 31.4847C409.954 35.6173 406.66 38.9642 402.592 38.9642C398.525 38.9642 395.225 35.6173 395.225 31.4847C395.225 27.3521 398.525 24.0052 402.592 24.0052C406.654 24.0052 409.954 27.3521 409.954 31.4847Z" fill="#38383A"/>
</svg>
