<svg width="1440" height="454" viewBox="0 0 1440 454" fill="none" xmlns="http://www.w3.org/2000/svg">
<mask id="mask0_156_528" style="mask-type:alpha" maskUnits="userSpaceOnUse" x="0" y="0" width="1440" height="454">
<rect width="1440" height="454" fill="#C4C4C4"/>
</mask>
<g mask="url(#mask0_156_528)">
<path d="M1535.2 291.244L1568.48 272.371L1573.91 227.272L1581.48 164.262L1586.27 124.489L1488.14 1.19692L-22.6431 -68.987L-106 369.5C-106 369.5 -64.5301 288.578 -18.4258 252.443C14.4717 226.659 41.5251 223.086 78.0018 201.519C110.721 182.173 159.178 148.622 159.178 148.622C159.178 148.622 223.34 110.613 284.483 117.966C345.626 125.318 404.057 155.22 463.392 177.606C522.727 199.991 582.966 214.86 645.465 210.938C707.963 207.016 772.722 184.303 831.605 210.447C890.488 236.59 943.496 311.59 1004.19 322.701C1064.88 333.812 1133.25 281.034 1195.3 280.87C1257.35 280.706 1313.06 333.157 1374.21 340.51C1435.35 347.862 1501.92 310.116 1535.2 291.244Z" fill="#F79517"/>
</g>
</svg>
