<svg width="110" height="109" viewBox="0 0 110 109" fill="none" xmlns="http://www.w3.org/2000/svg">
<circle cx="55.2382" cy="53.5614" r="53.5614" fill="#6AE056"/>
<path d="M54.8154 23.257C50.9822 23.257 47.2351 24.3936 44.048 26.5232C40.8608 28.6528 38.3767 31.6797 36.9099 35.221C35.443 38.7624 35.0592 42.6592 35.807 46.4187C36.5548 50.1782 38.4006 53.6316 41.1111 56.342C43.8215 59.0525 47.2749 60.8983 51.0344 61.6461C54.7939 62.3939 58.6907 62.0101 62.2321 60.5432C65.7734 59.0763 68.8003 56.5923 70.9299 53.4051C73.0595 50.218 74.1961 46.4709 74.1961 42.6377C74.1961 37.4976 72.1542 32.5681 68.5196 28.9335C64.885 25.2989 59.9555 23.257 54.8154 23.257Z" fill="#588A58"/>
<path d="M54.815 0C44.0822 0 33.5904 3.18266 24.6664 9.1455C15.7423 15.1083 8.7869 23.5836 4.67962 33.4994C0.572341 43.4153 -0.50231 54.3264 1.59156 64.853C3.68543 75.3796 8.85378 85.0489 16.443 92.6381C24.0323 100.227 33.7016 105.396 44.2282 107.49C54.7548 109.583 65.6659 108.509 75.5818 104.402C85.4976 100.294 93.9728 93.3389 99.9357 84.4148C105.899 75.4908 109.081 64.999 109.081 54.2662C109.065 39.8789 103.342 26.0856 93.1689 15.9123C82.9955 5.739 69.2023 0.0164144 54.815 0ZM85.7933 88.8647C85.716 83.7805 83.6445 78.9301 80.0252 75.3586C76.4058 71.7871 71.5283 69.7804 66.4435 69.7708H43.1866C38.1017 69.7804 33.2242 71.7871 29.6049 75.3586C25.9855 78.9301 23.914 83.7805 23.8368 88.8647C16.8076 82.5883 11.8507 74.3248 9.62229 65.1685C7.3939 56.0122 7.99921 46.395 11.358 37.5904C14.7169 28.7858 20.6708 21.209 28.4315 15.8634C36.1921 10.5178 45.3934 7.65551 54.817 7.65551C64.2405 7.65551 73.4418 10.5178 81.2024 15.8634C88.9631 21.209 94.917 28.7858 98.2759 37.5904C101.635 46.395 102.24 56.0122 100.012 65.1685C97.7832 74.3248 92.8263 82.5883 85.7971 88.8647H85.7933Z" fill="#588A58"/>
</svg>
