<svg width="280" height="61" viewBox="0 0 280 61" fill="none" xmlns="http://www.w3.org/2000/svg">
<g clip-path="url(#clip0_79_16)">
<path d="M58.0602 1.74864C57.7928 4.77796 57.5676 7.81081 57.3389 10.8437C56.8991 16.6736 56.4699 22.5071 56.0266 28.3371C55.4601 35.7925 54.869 43.2445 54.3237 50.6999C54.2603 51.5443 53.912 52.0158 53.0641 52.3008C46.9597 54.3485 40.8659 56.4138 34.772 58.4861C32.9812 59.0948 31.2009 59.7281 29.417 60.3508C29.1637 60.3508 28.9104 60.3508 28.6606 60.3508C28.453 60.2629 28.2525 60.1608 28.0413 60.0905C20.3291 57.4728 12.6168 54.8516 4.89743 52.2515C4.14098 51.9982 3.80321 51.5689 3.76099 50.8195C3.666 49.0779 3.51119 47.3363 3.37749 45.5947C2.76177 37.5939 2.14605 29.5896 1.53386 21.5888C1.02721 14.9742 0.534635 8.35968 0.0103964 1.74864C-0.0494161 0.981629 0.130021 0.401096 0.879437 0.0316655C2.81455 0.0316655 4.75318 0.0316655 6.68829 0.0316655C6.94865 0.274434 7.29345 0.4785 7.44826 0.774044C7.85287 1.53402 7.2266 2.36435 6.24849 2.38195C5.05576 2.40306 3.86303 2.38546 2.61048 2.38546C2.79344 4.78148 2.97287 7.1001 3.14879 9.41871C13.6089 9.41871 24.0445 9.41871 34.473 9.41871C35.0078 9.53834 35.3983 9.94295 35.3983 10.4285V10.7276C35.3983 11.3046 34.8318 11.7725 34.1457 11.7725L29.9976 11.8218H4.3556V11.8394C4.02839 11.8394 3.70118 11.8394 3.36342 11.8394C3.36342 11.9731 3.3599 12.054 3.36342 12.1314C3.76451 17.5145 4.16561 22.8976 4.57374 28.2808C5.11205 35.4055 5.66092 42.5302 6.19219 49.6585C6.22034 50.0384 6.33645 50.2355 6.7481 50.3762C14.0382 52.832 21.3177 55.3055 28.6043 57.7613C28.8717 57.8493 29.2341 57.8493 29.498 57.7578C36.7493 55.3195 43.9902 52.8567 51.2416 50.4184C51.7236 50.2566 51.8608 50.0244 51.8925 49.574C52.1001 46.499 52.3358 43.4274 52.568 40.3523C52.8882 36.1057 53.2119 31.8554 53.5391 27.6088C53.8135 24.0059 54.095 20.4066 54.3694 16.8038C54.4961 15.1642 54.6087 13.5211 54.7318 11.8499C53.9402 11.8499 53.1872 11.8499 52.3991 11.8499V11.8218H47.2869C46.7732 11.6881 46.4003 11.2729 46.4003 10.7803V10.4707C46.4003 9.96406 46.7978 9.54186 47.3326 9.41871C49.8624 9.41871 52.3921 9.41871 54.9218 9.41871C55.0977 7.06491 55.2736 4.7463 55.4531 2.38898C55.0977 2.38898 54.8479 2.38898 54.5981 2.38898C42.0762 2.38898 29.5578 2.38898 17.0359 2.38898C16.8247 2.38898 16.6136 2.39602 16.4061 2.38546C15.7903 2.3538 15.3681 2.05825 15.1993 1.51291C15.0374 0.981629 15.252 0.552386 15.727 0.232213C15.8255 0.165364 15.9311 0.102033 16.0296 0.0351838C29.7513 0.0351838 43.473 0.0351838 57.1912 0.0351838C57.9406 0.401096 58.127 0.981629 58.0602 1.74864ZM48.9792 31.5036C48.9898 31.5036 49.0004 31.5036 49.0144 31.5036V29.9801C49.0109 29.9801 49.0074 29.9801 49.0039 29.9801C49.0039 29.0056 49.0039 28.0486 49.0039 27.0353C49.0074 27.0353 49.0109 27.0353 49.0144 27.0353V25.5153C49.0004 25.5153 48.9898 25.5153 48.9757 25.5153C49.0109 24.4035 49.0426 23.3304 48.1771 22.5247C47.315 21.7225 46.3088 21.5923 45.1618 22.0251C45.1618 21.5607 45.1864 21.149 45.1583 20.7444C45.0387 19.1224 43.4976 17.8664 41.8827 18.0599C40.2431 18.2569 39.1559 19.4356 39.1348 21.0716C39.1172 22.3875 39.1313 23.7034 39.1313 25.0192C39.1313 25.174 39.1172 25.3288 39.1102 25.4942C38.0969 25.4942 37.1293 25.4942 36.109 25.4942C36.1618 24.4633 36.0351 23.4922 35.0746 22.8976C34.1246 22.3066 33.1958 22.4332 32.3232 23.0771C31.1164 22.3382 30.4937 22.3382 29.2728 23.0771C28.263 22.3277 27.2427 22.3488 26.247 23.0841C25.2618 22.4191 24.3259 22.3593 23.4921 22.8976C22.5386 23.5134 22.4119 24.4668 22.4577 25.4872C21.4268 25.4872 20.4452 25.4872 19.4354 25.4872C19.4354 25.2972 19.4354 25.1353 19.4354 24.977C19.4354 23.633 19.46 22.2854 19.4213 20.9449C19.3756 19.3441 18.211 18.1971 16.5503 18.0423C15.157 17.9121 13.7673 18.95 13.4647 20.4031C13.3591 20.9098 13.3873 21.4445 13.3521 21.9864C13.2641 21.9688 13.1797 21.9618 13.0953 21.9371C11.2833 21.3953 9.66484 22.5388 9.58743 24.4176C9.57336 24.7659 9.58391 25.1142 9.58391 25.5188C9.55577 25.5188 9.53114 25.5188 9.50651 25.5188V27.0529C9.52762 27.0529 9.54521 27.0529 9.56281 27.0529C9.56281 28.0415 9.56281 28.9985 9.56281 29.9837C9.54521 29.9837 9.5241 29.9837 9.50651 29.9837V31.5071C9.5241 31.5071 9.54521 31.5071 9.56281 31.5071C9.74224 34.6948 10.5761 35.4618 13.3978 35.0396C13.3978 35.4372 13.3732 35.8312 13.4014 36.2182C13.4823 37.2351 13.9678 38.0267 14.8545 38.5439C16.881 39.7261 19.3545 38.3715 19.4213 36.0318C19.46 34.6877 19.4319 33.3437 19.4319 31.9962C19.4319 31.8414 19.4319 31.6866 19.4319 31.5423C19.9737 31.5423 20.4522 31.5423 20.9448 31.5423C20.9448 32.3093 20.9483 33.0376 20.9448 33.7694C20.9377 34.9551 21.3459 35.9649 22.2079 36.7953C22.6969 37.2632 23.1614 37.7558 23.6574 38.2132C23.8932 38.4313 23.9811 38.6565 23.9811 38.9767C23.9706 42.7906 23.9741 46.608 23.9741 50.422C23.9741 50.5908 23.9741 50.7597 23.9741 50.9392C24.5089 50.9392 24.9733 50.9392 25.4553 50.9392C25.4694 50.8301 25.487 50.7456 25.487 50.6612C25.487 46.5693 25.4976 42.4774 25.4729 38.382C25.4729 38.1006 25.297 37.7628 25.0965 37.5447C24.5441 36.936 23.9495 36.3625 23.3478 35.8031C22.7251 35.2261 22.4436 34.5329 22.4542 33.692C22.4718 32.3762 22.4577 31.0603 22.4577 29.7444C22.4577 29.5896 22.4577 29.4348 22.4577 29.2518C24.0093 29.2518 25.5011 29.2378 26.9929 29.2624C27.4538 29.2694 27.774 29.6389 27.7634 30.0188C27.7493 30.4375 27.4186 30.726 26.919 30.7331C26.2399 30.7436 25.5574 30.726 24.8783 30.7401C24.2837 30.7542 24.0022 31.0286 23.9811 31.5986C23.9635 32.0349 23.9706 32.4747 23.9811 32.9145C23.9882 33.3261 24.1922 33.597 24.5969 33.7272C25.0613 33.875 25.5187 34.0404 25.9796 34.1881C26.5284 34.3641 26.9823 34.6702 27.3447 35.117C28.0026 35.9227 28.3826 36.8375 28.4987 37.8684C28.5128 37.995 28.6289 38.2061 28.7098 38.2132C29.132 38.2483 29.5578 38.2308 30.0187 38.2308C29.9941 36.8023 29.5331 35.5884 28.7556 34.4626C27.9639 33.3121 26.7571 32.7949 25.4729 32.3339C25.9303 32.2354 26.349 32.2319 26.7712 32.2354C27.3658 32.2425 27.9006 32.1053 28.3967 31.7534C28.5937 31.6127 28.8647 31.5071 29.1039 31.5071C31.0109 31.486 32.9213 31.4966 34.8283 31.4966C34.9866 31.4966 35.1414 31.4966 35.335 31.4966C35.335 32.4113 35.3279 33.2734 35.3385 34.1318C35.3455 34.7124 35.1696 35.219 34.8178 35.6799C34.3533 36.2851 33.9065 36.9043 33.428 37.4989C33.1747 37.8156 33.0691 38.1428 33.0726 38.5439C33.0832 42.5197 33.0762 46.4954 33.0797 50.4712C33.0797 50.626 33.0973 50.7773 33.1043 50.9286C33.6215 50.9286 34.0859 50.9286 34.5926 50.9286C34.5926 50.7245 34.5926 50.5521 34.5926 50.3797C34.5926 46.9458 34.6348 43.5083 34.568 40.0744C34.5468 38.945 34.7615 38.0056 35.5566 37.1788C36.5805 36.1162 36.9816 34.825 36.8584 33.3578C36.8092 32.7526 36.8514 32.1404 36.8514 31.5247C37.6395 31.5247 38.3713 31.5247 39.1313 31.5247C39.1313 31.7112 39.1313 31.8695 39.1313 32.0278C39.1348 33.3859 39.0996 34.7476 39.1489 36.1057C39.2087 37.7452 40.5598 38.9802 42.1958 38.9626C43.8178 38.9415 45.102 37.703 45.1724 36.0775C45.1864 35.7327 45.1759 35.3844 45.1759 35.0149C45.2814 35.029 45.3448 35.022 45.394 35.0431C47.0582 35.694 49.032 34.5224 48.9828 32.4008C48.9722 32.1193 48.9792 31.8308 48.9792 31.5036ZM13.3802 32.4184C13.3802 33.108 13.0319 33.597 12.4831 33.7061C11.7372 33.8574 11.1039 33.3261 11.0968 32.5099C11.0863 31.1834 11.0933 29.8535 11.0933 28.5235C11.0933 27.2112 11.0652 25.8953 11.1109 24.5829C11.1214 24.2346 11.2868 23.8441 11.505 23.5697C11.7618 23.2495 12.1805 23.1686 12.5992 23.3304C13.0495 23.5063 13.3169 23.8406 13.3662 24.3155C13.3943 24.6041 13.3802 24.8996 13.3802 25.1916C13.3802 27.6017 13.3838 30.0118 13.3802 32.4184ZM17.9154 35.8242C17.9154 36.7671 17.3419 37.4286 16.5011 37.4743C15.5968 37.5236 14.9002 36.8691 14.8967 35.9333C14.8861 34.0474 14.8932 32.1651 14.8932 30.2792C14.8932 29.6811 14.8932 29.0794 14.8932 28.4813C14.8932 26.0114 14.8861 23.5415 14.8967 21.0751C14.9002 20.0372 15.7798 19.3441 16.7649 19.5763C17.4264 19.7311 17.8943 20.2976 17.9119 21.0118C17.9295 21.7718 17.919 22.5317 17.919 23.2917C17.919 27.468 17.919 31.6479 17.9154 35.8242ZM21.9194 27.7495C21.2333 27.76 20.9518 28.0345 20.9413 28.7065C20.9342 29.1005 20.9342 29.4911 20.9307 29.8852C20.9307 29.9098 20.9096 29.9344 20.8885 29.9872C20.4346 29.9872 19.9667 29.9872 19.4671 29.9872C19.4671 29.0196 19.4671 28.0556 19.4671 27.0529C20.4381 27.0529 21.4162 27.0529 22.4506 27.0529C22.4893 27.278 22.5245 27.4891 22.5703 27.753C22.3275 27.746 22.1234 27.746 21.9194 27.7495ZM25.48 26.9754C25.4589 27.4328 25.1879 27.7143 24.7833 27.7389C24.3752 27.7636 24.0234 27.5102 24.0022 27.0704C23.9635 26.2858 23.9635 25.4942 23.9987 24.7061C24.0198 24.2628 24.3611 24.013 24.7728 24.0306C25.1809 24.0482 25.4553 24.3261 25.4765 24.78C25.494 25.16 25.48 25.5399 25.48 25.9199C25.4835 26.2753 25.494 26.6236 25.48 26.9754ZM33.0832 24.7624C33.1043 24.3296 33.3682 24.0622 33.7622 24.0341C34.1774 24.0024 34.5328 24.2417 34.5539 24.6815C34.5961 25.4801 34.5926 26.2858 34.5539 27.088C34.5328 27.5067 34.1915 27.7495 33.8009 27.7389C33.3928 27.7249 33.1078 27.4469 33.0832 26.9966C33.0656 26.6166 33.0797 26.2366 33.0797 25.8566C33.0797 25.4942 33.0656 25.1283 33.0832 24.7624ZM30.0539 24.7729C30.082 24.3155 30.36 24.0446 30.7681 24.0306C31.1797 24.0165 31.5105 24.2698 31.5316 24.7166C31.5668 25.4872 31.5668 26.2647 31.5351 27.0353C31.5175 27.4821 31.1868 27.746 30.7822 27.7389C30.374 27.7319 30.0855 27.461 30.0574 27.0071C30.0328 26.6306 30.0539 26.2471 30.0539 25.8672C30.0468 25.5048 30.0292 25.1389 30.0539 24.7729ZM28.5058 27.0036C28.4776 27.4575 28.1891 27.7284 27.7845 27.7389C27.3799 27.7495 27.0492 27.4856 27.0316 27.0388C26.9999 26.2683 26.9999 25.4907 27.0316 24.7202C27.0527 24.2733 27.3799 24.02 27.7915 24.0306C28.1997 24.0411 28.4811 24.312 28.5093 24.7694C28.5339 25.1494 28.5128 25.5294 28.5128 25.9094C28.5093 26.2753 28.5304 26.6412 28.5058 27.0036ZM39.1031 29.9731C35.8486 29.9731 32.5871 29.9731 29.3291 29.9731C29.2376 29.6635 29.1461 29.3855 29.0828 29.1041C29.0617 29.0126 29.0758 28.8437 29.1321 28.8156C29.22 28.7698 29.3819 28.7698 29.4663 28.8226C30.4303 29.4418 31.3592 29.3679 32.3056 28.6995C33.0375 29.2378 33.8572 29.4348 34.7368 29.0548C35.6024 28.6783 36.0246 27.9747 36.109 27.0423C37.1153 27.0423 38.1004 27.0423 39.1067 27.0423C39.1031 28.0169 39.1031 28.9774 39.1031 29.9731ZM43.6665 28.513C43.6665 30.9829 43.6735 33.4528 43.663 35.9192C43.6595 37.031 42.6462 37.7558 41.6399 37.3828C41.0629 37.1682 40.7427 36.739 40.6548 36.1408C40.6372 36.0107 40.6442 35.877 40.6442 35.7468C40.6442 30.909 40.6442 26.0747 40.6442 21.237C40.6442 21.0751 40.6407 20.9133 40.6688 20.7549C40.806 20.0126 41.4851 19.4813 42.2204 19.5235C43.0191 19.5693 43.6419 20.1744 43.6559 20.9731C43.677 22.0251 43.663 23.0771 43.663 24.1291C43.6665 25.5927 43.6665 27.0529 43.6665 28.513ZM47.4663 28.4919C47.4663 29.8359 47.4663 31.1764 47.4663 32.5204C47.4663 33.0341 47.2376 33.4282 46.7627 33.6393C46.351 33.8222 45.9112 33.787 45.6192 33.4528C45.4046 33.21 45.204 32.8476 45.2005 32.538C45.1688 29.8535 45.1759 27.1654 45.1864 24.4809C45.1899 23.7843 45.686 23.2706 46.3158 23.2636C46.9667 23.2565 47.4628 23.7772 47.4663 24.5055C47.4734 25.8355 47.4663 27.1654 47.4663 28.4919ZM25.487 58.2468H23.9847V50.9286H25.487V58.2468ZM34.575 58.4052H33.0726V50.9286H34.575V58.4052ZM12.5605 1.18218C12.5605 1.83308 12.0257 2.36435 11.3677 2.36435C10.7098 2.36435 10.175 1.8366 10.175 1.18218C10.175 0.527757 10.7063 0 11.3642 0C12.0222 0 12.5605 0.527757 12.5605 1.18218ZM44.0465 10.6607C44.0465 10.0379 43.5926 9.52075 42.998 9.41168H39.0469C38.4452 9.51723 37.9878 10.0344 37.9878 10.6607C37.9878 11.2729 38.4241 11.7831 39.0046 11.9027H43.0332C43.6137 11.7795 44.0465 11.2694 44.0465 10.6607Z" fill="url(#paint0_linear_79_16)"/>
<path d="M80.5991 32.6541V44.1698C80.3844 44.2436 80.0994 44.321 79.7406 44.4125C79.3817 44.5005 78.9911 44.5462 78.5619 44.5462C76.9892 44.5462 76.2046 43.8848 76.2046 42.5654V14.0665C76.2046 13.4965 76.3453 13.0567 76.6338 12.7541C76.9188 12.4515 77.3657 12.2088 77.9743 12.0328C79.0087 11.7127 80.2683 11.4805 81.7496 11.3362C83.2308 11.1955 84.6698 11.1216 86.0596 11.1216C90.5948 11.1216 93.9056 12.0786 95.9955 13.9855C98.0854 15.896 99.1304 18.475 99.1304 21.726C99.1304 25.0473 98.0608 27.6967 95.9181 29.6811C93.7754 31.6619 90.4716 32.6541 86.0103 32.6541H80.5991ZM85.7394 29.009C88.5963 29.009 90.8094 28.4215 92.3821 27.2428C93.9513 26.0642 94.7394 24.2452 94.7394 21.7788C94.7394 19.3511 93.9795 17.5743 92.463 16.4484C90.9466 15.3225 88.7758 14.7631 85.954 14.7631C84.99 14.7631 84.033 14.8088 83.0901 14.8968C82.1436 14.9848 81.2957 15.1044 80.5463 15.2451V29.009H85.7394Z" fill="white" stroke="white" stroke-miterlimit="10"/>
<path d="M126.285 31.9011C126.285 33.8996 126 35.7045 125.427 37.3089C124.853 38.9168 124.044 40.2925 122.988 41.4324C121.936 42.5759 120.659 43.452 119.16 44.0571C117.662 44.6623 115.983 44.9684 114.126 44.9684C112.268 44.9684 110.59 44.6658 109.091 44.0571C107.592 43.452 106.304 42.5759 105.235 41.4324C104.165 40.2889 103.342 38.9168 102.772 37.3089C102.202 35.701 101.913 33.8996 101.913 31.9011C101.913 29.9027 102.209 28.0977 102.796 26.4898C103.384 24.8819 104.214 23.5098 105.287 22.3663C106.357 21.2228 107.645 20.3503 109.144 19.7416C110.642 19.1364 112.303 18.8303 114.126 18.8303C115.948 18.8303 117.605 19.1329 119.108 19.7416C120.606 20.3503 121.884 21.2228 122.936 22.3663C123.988 23.5098 124.811 24.8819 125.399 26.4898C125.99 28.1013 126.285 29.9027 126.285 31.9011ZM114.126 22.3698C111.698 22.3698 109.787 23.2107 108.394 24.8855C107.001 26.5637 106.304 28.9035 106.304 31.9011C106.304 34.9375 106.99 37.2842 108.366 38.9449C109.742 40.6056 111.659 41.4359 114.122 41.4359C116.585 41.4359 118.495 40.5986 119.854 38.9203C121.212 37.242 121.891 34.9023 121.891 31.9046C121.891 28.9035 121.201 26.5672 119.829 24.889C118.457 23.2072 116.553 22.3698 114.126 22.3698Z" fill="white" stroke="white" stroke-miterlimit="10"/>
<path d="M142.941 22.4228C141.727 22.4228 140.601 22.6268 139.567 23.0385C138.533 23.4501 137.639 24.0553 136.89 24.861C136.14 25.6667 135.549 26.666 135.123 27.8622C134.694 29.0585 134.48 30.4236 134.48 31.9576C134.48 35.0291 135.247 37.3759 136.784 39.0014C138.318 40.6269 140.373 41.4396 142.945 41.4396C144.444 41.4396 145.693 41.2356 146.695 40.8239C147.695 40.4123 148.588 39.9408 149.373 39.406C149.767 39.6206 150.087 39.888 150.337 40.2082C150.587 40.5284 150.713 40.9224 150.713 41.3869C150.713 41.8865 150.516 42.3509 150.126 42.7801C149.732 43.2094 149.19 43.5823 148.493 43.906C147.797 44.2262 146.977 44.4866 146.03 44.6836C145.084 44.8806 144.057 44.9791 142.952 44.9791C141.094 44.9791 139.381 44.7117 137.811 44.1769C136.239 43.6421 134.884 42.8364 133.741 41.7669C132.597 40.6973 131.707 39.3497 131.063 37.7242C130.419 36.0987 130.099 34.1812 130.099 31.9646C130.099 29.7868 130.437 27.8868 131.116 26.2613C131.795 24.6358 132.703 23.2707 133.846 22.1624C134.99 21.0576 136.337 20.2273 137.889 19.6714C139.44 19.119 141.094 18.8411 142.843 18.8411C143.947 18.8411 144.975 18.9396 145.921 19.1366C146.868 19.3336 147.68 19.6116 148.36 19.9669C149.039 20.3258 149.563 20.7269 149.939 21.1702C150.316 21.6171 150.502 22.0709 150.502 22.5354C150.502 22.9646 150.376 23.3376 150.126 23.6613C149.876 23.9814 149.552 24.2312 149.162 24.4107C148.377 23.8759 147.519 23.4114 146.59 23.0174C145.654 22.6198 144.44 22.4228 142.941 22.4228Z" fill="white" stroke="white" stroke-miterlimit="10"/>
<path d="M159.224 44.4091C158.865 44.4971 158.475 44.5428 158.046 44.5428C156.508 44.5428 155.741 43.8989 155.741 42.6147V9.56655C155.92 9.49618 156.195 9.41526 156.571 9.3273C156.948 9.23934 157.349 9.1936 157.775 9.1936C159.273 9.1936 160.023 9.83747 160.023 11.1217V30.4024L171.753 19.0486C172.612 19.0838 173.28 19.2914 173.762 19.6643C174.244 20.0373 174.483 20.5298 174.483 21.1385C174.483 21.6381 174.322 22.0744 174.001 22.4509C173.681 22.8273 173.252 23.2636 172.717 23.7632L164.097 31.3137L176.042 42.0272C175.968 42.8118 175.729 43.438 175.317 43.9025C174.906 44.3669 174.36 44.5991 173.685 44.5991C173.15 44.5991 172.657 44.4654 172.211 44.198C171.764 43.9306 171.31 43.5471 170.845 43.0475L160.026 32.1757V44.1734C159.847 44.2402 159.58 44.3176 159.224 44.4091Z" fill="white" stroke="white" stroke-miterlimit="10"/>
<path d="M182.79 34.4204C183.755 39.0999 186.826 41.4361 192.002 41.4361C193.5 41.4361 194.859 41.1863 196.072 40.6867C197.286 40.1871 198.25 39.6523 198.964 39.0788C199.823 39.5784 200.249 40.2574 200.249 41.1124C200.249 41.612 200.027 42.094 199.58 42.5584C199.133 43.0229 198.525 43.4345 197.758 43.7899C196.991 44.1488 196.097 44.4337 195.08 44.6484C194.063 44.863 192.966 44.9685 191.787 44.9685C187.646 44.9685 184.37 43.8427 181.96 41.5944C179.55 39.3462 178.343 36.06 178.343 31.7394C178.343 29.7023 178.639 27.8938 179.226 26.3035C179.814 24.7167 180.637 23.3657 181.689 22.2609C182.741 21.1561 184.001 20.3047 185.464 19.7171C186.928 19.1295 188.518 18.834 190.232 18.834C191.84 18.834 193.321 19.1014 194.676 19.6362C196.034 20.171 197.202 20.9309 198.183 21.9126C199.165 22.8942 199.932 24.0553 200.488 25.3923C201.04 26.7328 201.318 28.2034 201.318 29.8113C201.318 30.5959 201.139 31.1589 200.783 31.4966C200.425 31.8379 199.925 32.042 199.285 32.1124L182.79 34.4204ZM190.179 22.3172C188.001 22.3172 186.196 23.0772 184.768 24.5936C183.339 26.11 182.59 28.2808 182.52 31.1026L197.248 29.069C197.068 27.1057 196.382 25.4908 195.186 24.2206C193.993 22.9505 192.322 22.3172 190.179 22.3172Z" fill="white" stroke="white" stroke-miterlimit="10"/>
<path d="M214.551 44.9721C212.053 44.9721 210.026 44.4197 208.471 43.3114C206.916 42.2067 206.142 40.3665 206.142 37.7946V12.3532C206.321 12.2828 206.596 12.2019 206.972 12.1139C207.349 12.026 207.75 11.9802 208.175 11.9802C209.674 11.9802 210.424 12.6241 210.424 13.9083V20.069H219.209C219.315 20.2484 219.424 20.4877 219.529 20.7903C219.635 21.0928 219.691 21.4236 219.691 21.7824C219.691 22.9963 219.156 23.605 218.083 23.605H210.424V37.5307C210.424 38.9592 210.825 39.969 211.631 40.5565C212.433 41.1441 213.566 41.4397 215.033 41.4397C215.638 41.4397 216.317 41.3341 217.07 41.1195C217.819 40.9049 218.446 40.6551 218.945 40.3701C219.16 40.5847 219.357 40.8521 219.533 41.1723C219.712 41.4924 219.8 41.8689 219.8 42.2981C219.8 43.0827 219.336 43.7266 218.407 44.2262C217.478 44.7223 216.19 44.9721 214.551 44.9721Z" fill="white" stroke="white" stroke-miterlimit="10"/>
<path d="M247.328 11.7655C247.508 12.0505 247.676 12.434 247.838 12.916C248 13.398 248.078 13.9258 248.078 14.4957C248.078 15.4598 247.856 16.1916 247.409 16.6912C246.962 17.1908 246.364 17.4406 245.615 17.4406H232.706V25.9551H245.506C245.685 26.2401 245.854 26.6166 246.016 27.081C246.178 27.5454 246.255 28.0626 246.255 28.6361C246.255 29.6002 246.033 30.3214 245.587 30.807C245.14 31.289 244.542 31.5282 243.792 31.5282H232.811V44.2226C232.491 44.2929 232.034 44.3844 231.446 44.49C230.859 44.5955 230.243 44.6518 229.599 44.6518C228.241 44.6518 227.277 44.402 226.707 43.9024C226.133 43.4028 225.848 42.5619 225.848 41.3832V15.4598C225.848 14.3163 226.179 13.4156 226.841 12.7541C227.502 12.0927 228.403 11.762 229.546 11.762H247.328V11.7655Z" fill="white"/>
<path d="M251.772 11.3363C251.772 10.3019 252.138 9.41877 252.87 8.68343C253.602 7.95161 254.537 7.58569 255.681 7.58569C256.824 7.58569 257.75 7.95161 258.467 8.68343C259.182 9.41525 259.537 10.2984 259.537 11.3363C259.537 12.4059 259.178 13.3101 258.467 14.0419C257.753 14.7738 256.824 15.1397 255.681 15.1397C254.537 15.1397 253.602 14.7738 252.87 14.0419C252.138 13.3101 251.772 12.4059 251.772 11.3363ZM252.307 19.1014C252.592 19.031 253.01 18.9395 253.566 18.834C254.119 18.7284 254.717 18.6721 255.361 18.6721C256.645 18.6721 257.584 18.9043 258.172 19.3688C258.759 19.8332 259.055 20.653 259.055 21.8316V44.2191C258.77 44.2895 258.351 44.381 257.795 44.4865C257.24 44.5921 256.645 44.6483 256.001 44.6483C254.717 44.6483 253.777 44.4161 253.19 43.9517C252.602 43.4873 252.307 42.6675 252.307 41.4888V19.1014Z" fill="white"/>
<path d="M272.474 38.8642C273.171 39.3638 274.142 39.6136 275.394 39.6136C275.999 39.6136 276.615 39.5432 277.241 39.399C277.864 39.2582 278.427 39.0788 278.93 38.8642C279.215 39.1492 279.458 39.4975 279.652 39.9091C279.849 40.3208 279.947 40.7922 279.947 41.327C279.947 42.3966 279.465 43.2833 278.501 43.9799C277.537 44.6765 275.982 45.0249 273.843 45.0249C271.021 45.0249 268.797 44.3916 267.175 43.1249C265.55 41.8583 264.737 39.7614 264.737 36.8305V12.2476C265.022 12.1772 265.441 12.0858 265.997 11.9802C266.549 11.8747 267.147 11.8184 267.791 11.8184C269.04 11.8184 269.962 12.0506 270.549 12.515C271.137 12.9794 271.433 13.7992 271.433 14.9779V19.4216H279.307C279.486 19.7066 279.644 20.083 279.789 20.5475C279.929 21.0119 280.003 21.5115 280.003 22.0463C280.003 22.9752 279.789 23.6542 279.359 24.0834C278.93 24.5127 278.36 24.7273 277.646 24.7273H271.433V36.4048C271.429 37.5448 271.777 38.3646 272.474 38.8642Z" fill="white"/>
</g>
<defs>
<linearGradient id="paint0_linear_79_16" x1="4.5008" y1="2.26932" x2="47.4178" y2="40.9857" gradientUnits="userSpaceOnUse">
<stop stop-color="#DFFC52"/>
<stop offset="0.1177" stop-color="#D9FB52"/>
<stop offset="0.268" stop-color="#CAF753"/>
<stop offset="0.4359" stop-color="#AFF154"/>
<stop offset="0.6153" stop-color="#8BE855"/>
<stop offset="0.7542" stop-color="#6AE056"/>
</linearGradient>
<clipPath id="clip0_79_16">
<rect width="280" height="60.3508" fill="white"/>
</clipPath>
</defs>
</svg>
