<svg width="1440" height="454" viewBox="0 0 1440 454" fill="none" xmlns="http://www.w3.org/2000/svg">
<mask id="mask0_133_5603" style="mask-type:alpha" maskUnits="userSpaceOnUse" x="0" y="0" width="1440" height="454">
<rect width="1440" height="454" fill="#C4C4C4"/>
</mask>
<g mask="url(#mask0_133_5603)">
<path d="M1535.2 291.244L1568.48 272.371L1573.91 227.272L1581.48 164.262L1586.27 124.489L1488.14 1.19692L-22.6431 -68.987L-106 369.5C-106 369.5 -64.5301 288.578 -18.4258 252.443C14.4717 226.659 41.5251 223.086 78.0018 201.519C110.721 182.173 159.178 148.622 159.178 148.622C159.178 148.622 223.34 110.613 284.483 117.966C345.626 125.318 404.057 155.22 463.392 177.606C522.727 199.991 582.966 214.86 645.465 210.938C707.963 207.016 772.722 184.303 831.605 210.447C890.488 236.59 943.496 311.59 1004.19 322.701C1064.88 333.812 1133.25 281.034 1195.3 280.87C1257.35 280.706 1313.06 333.157 1374.21 340.51C1435.35 347.862 1501.92 310.116 1535.2 291.244Z" fill="#F79517"/>
</g>
<path d="M956.373 156.904L960.481 141.404C961.271 138.43 963.087 136.986 965.854 136.986H976.052L978.189 129.035H965.619C959.134 129.035 955.262 131.608 953.841 136.829L948.542 156.91H943.638L941.661 164.541H946.485L940 189.197H947.906L954.391 164.541H966.175L968.152 156.91H956.373V156.904Z" fill="white"/>
<path d="M983.57 129.035L967.758 189.197H975.664L991.476 129.035H983.57Z" fill="white"/>
<path d="M1018.27 136.666L1020.25 129.035H996.373L994.397 136.666H1002.38L988.547 189.197H996.453L1010.29 136.666H1018.27Z" fill="white"/>
<path d="M1033.61 128.232C1027.28 128.232 1023.17 131.043 1021.75 136.503L1007.83 189.191H1015.74L1028.87 139.553C1029.42 137.306 1030.76 136.177 1032.9 136.177C1036.3 136.177 1037.49 137.702 1036.69 140.676L1023.89 189.191H1031.79L1044.36 141.398C1046.65 132.731 1042.94 128.232 1033.61 128.232Z" fill="white"/>
<path d="M1060.49 141.404C1061.28 138.43 1063.02 136.986 1065.79 136.986H1075.99L1078.12 129.035H1065.55C1059.07 129.035 1055.2 131.608 1053.77 136.829L1049.35 153.779H1044.44L1042.47 161.409H1047.29L1043.5 175.868C1041.13 184.785 1044.44 189.203 1053.3 189.203H1062.31L1064.29 181.572H1054.88C1051.64 181.572 1050.45 179.803 1051.32 176.351L1055.28 161.409H1066.9L1068.88 153.779H1057.25L1060.49 141.404Z" fill="white"/>
<path d="M1091.64 155.379L1088.08 153.534C1085.63 152.248 1084.68 150.321 1085.39 147.673L1087.53 139.559C1088.16 137.469 1089.74 136.183 1091.88 136.183C1094.64 136.183 1095.91 137.871 1095.27 140.682L1094.33 144.617H1102.23L1103.03 141.404C1105.08 133.133 1101.05 128.232 1092.27 128.232C1086.18 128.232 1081.84 131.282 1080.41 136.503L1077.41 147.987C1075.9 153.691 1077.65 157.708 1082.31 160.036L1085.79 161.805C1088 163.092 1088.87 165.1 1088.08 168.068L1085.39 178.673C1084.76 180.92 1083.25 182.049 1080.96 182.049C1078.04 182.049 1076.86 180.524 1077.57 177.55L1078.91 171.927H1071.01L1069.82 176.828C1067.76 185.501 1071.4 190 1080.57 190C1086.98 190 1091.25 186.624 1092.91 180.123L1096.07 168.074C1097.65 161.968 1096.14 157.87 1091.64 155.379Z" fill="white"/>
<path d="M1121.28 128.232C1115.19 128.232 1110.85 131.282 1109.42 136.503L1106.42 147.987C1104.92 153.691 1106.66 157.708 1111.33 160.036L1114.8 161.805C1117.02 163.092 1117.89 165.1 1117.1 168.068L1114.41 178.673C1113.78 180.92 1112.28 182.049 1109.98 182.049C1107.06 182.049 1105.87 180.524 1106.58 177.55L1107.92 171.927H1100.02L1098.83 176.828C1096.78 185.501 1100.41 190 1109.59 190C1115.99 190 1120.26 186.624 1121.92 180.123L1125.08 168.074C1126.66 161.968 1125.16 157.87 1120.65 155.385L1117.1 153.54C1114.64 152.254 1113.7 150.327 1114.41 147.679L1116.55 139.565C1117.18 137.475 1118.76 136.189 1120.89 136.189C1123.66 136.189 1124.93 137.877 1124.29 140.688L1123.35 144.623H1131.25L1132.04 141.41C1134.09 133.133 1130.06 128.232 1121.28 128.232Z" fill="white"/>
<path d="M1223.51 134.829C1217.83 134.829 1214.18 137.326 1212.92 142.168L1203.52 177.953C1201.48 185.654 1204.78 189.641 1213.13 189.641C1218.81 189.641 1222.39 187.144 1223.65 182.301L1229.47 160.276H1218.74L1216.99 167.046H1220.64L1217.27 179.589C1216.77 181.585 1215.44 182.581 1213.48 182.581C1210.82 182.581 1209.69 181.225 1210.39 178.588L1219.23 144.869C1219.72 142.873 1221.13 141.877 1223.16 141.877C1225.76 141.877 1226.74 143.234 1226.18 145.87L1225.41 149.363H1232.35L1232.98 146.511C1234.67 138.822 1231.44 134.829 1223.51 134.829Z" fill="#38383A"/>
<path d="M1262.38 135.544H1255.36L1249.75 156.499C1249.26 158.495 1247.92 159.49 1246.03 159.49C1243.22 159.49 1242.17 158.134 1242.87 155.497L1248.21 135.539H1241.26L1236 154.857C1234.38 160.631 1235.93 164.339 1240.35 165.835L1234.32 188.931H1241.33L1247.23 166.475C1251.86 166.05 1254.95 163.623 1256.07 159.205L1262.38 135.544Z" fill="#38383A"/>
<path d="M1289.88 134.829C1286.38 134.829 1283.71 136.755 1281.96 140.533C1281.68 136.755 1279.43 134.829 1275.29 134.829C1270.88 134.829 1267.86 137.326 1266.59 142.169L1254.31 188.931H1261.33L1272.98 144.165C1273.33 142.669 1274.24 141.883 1275.64 141.883C1277.4 141.883 1277.96 143.24 1277.26 145.876L1265.96 188.931H1272.98L1284.76 144.165C1285.11 142.669 1286.02 141.883 1287.43 141.883C1289.11 141.883 1289.6 143.24 1288.9 145.876L1277.6 188.931H1284.62L1295.71 146.517C1297.74 138.822 1295.71 134.829 1289.88 134.829Z" fill="#38383A"/>
<path d="M1168.97 132.414H1156.03V189.886H1168.97V132.414Z" fill="#38383A"/>
<path d="M1200.55 153.845H1183.89V132.413H1170.95V189.886H1183.89V168.455H1196.6L1200.55 153.845Z" fill="#38383A"/>
<path d="M1155.54 166.964C1159.6 166.964 1162.9 163.615 1162.9 159.485C1162.9 155.354 1159.6 152.005 1155.54 152.005C1151.47 152.005 1148.18 155.354 1148.18 159.485C1148.18 163.615 1151.47 166.964 1155.54 166.964Z" fill="#38383A"/>
<path d="M1342.73 132.413H1329.79V189.886H1342.73V132.413Z" fill="#38383A"/>
<path d="M1314.88 132.414V153.845H1301.46L1297.52 168.455H1314.88V189.886H1327.82V132.414H1314.88Z" fill="#38383A"/>
<path d="M1349.95 159.485C1349.95 163.617 1346.66 166.964 1342.59 166.964C1338.52 166.964 1335.23 163.617 1335.23 159.485C1335.23 155.352 1338.52 152.005 1342.59 152.005C1346.65 152.005 1349.95 155.352 1349.95 159.485Z" fill="#38383A"/>
<path d="M832.74 91.82C832.74 93.59 831.54 94.58 829.5 94.58H825.27V88.94H829.41C831.45 88.94 832.74 90.02 832.74 91.82ZM832.23 83.09C832.23 84.8 831.09 85.7 829.11 85.7H825.27V80.45H829.11C831.09 80.45 832.23 81.41 832.23 83.09ZM837 92.33C837 89.87 835.32 87.68 832.95 87.26C834.99 86.6 836.52 85.01 836.52 82.46C836.52 79.34 834.09 77.06 829.71 77.06H821.07V98H830.1C834.45 98 837 95.66 837 92.33ZM839.627 98H843.827V81.38H839.627V98ZM841.757 79.4C843.227 79.4 844.337 78.32 844.337 76.94C844.337 75.56 843.227 74.48 841.757 74.48C840.257 74.48 839.177 75.56 839.177 76.94C839.177 78.32 840.257 79.4 841.757 79.4ZM854.397 84.56C856.557 84.56 858.297 85.94 858.357 88.13H850.467C850.797 85.85 852.387 84.56 854.397 84.56ZM862.287 92.78H857.757C857.217 93.89 856.227 94.79 854.427 94.79C852.327 94.79 850.647 93.41 850.437 90.95H862.587C862.677 90.41 862.707 89.87 862.707 89.33C862.707 84.38 859.317 81.11 854.517 81.11C849.597 81.11 846.177 84.44 846.177 89.69C846.177 94.91 849.687 98.27 854.517 98.27C858.627 98.27 861.387 95.84 862.287 92.78ZM876.693 98H880.893V88.25C880.893 83.66 878.133 81.14 874.263 81.14C872.133 81.14 870.333 82.04 869.253 83.45V81.38H865.053V98H869.253V88.82C869.253 86.15 870.723 84.71 873.003 84.71C875.223 84.71 876.693 86.15 876.693 88.82V98ZM882.397 81.38L888.517 98H893.617L899.767 81.38H895.297L891.097 94.13L886.897 81.38H882.397ZM908.546 84.56C910.706 84.56 912.446 85.94 912.506 88.13H904.616C904.946 85.85 906.536 84.56 908.546 84.56ZM916.436 92.78H911.906C911.366 93.89 910.376 94.79 908.576 94.79C906.476 94.79 904.796 93.41 904.586 90.95H916.736C916.826 90.41 916.856 89.87 916.856 89.33C916.856 84.38 913.466 81.11 908.666 81.11C903.746 81.11 900.326 84.44 900.326 89.69C900.326 94.91 903.836 98.27 908.666 98.27C912.776 98.27 915.536 95.84 916.436 92.78ZM930.841 98H935.041V88.25C935.041 83.66 932.281 81.14 928.411 81.14C926.281 81.14 924.481 82.04 923.401 83.45V81.38H919.201V98H923.401V88.82C923.401 86.15 924.871 84.71 927.151 84.71C929.371 84.71 930.841 86.15 930.841 88.82V98ZM938.315 98H942.515V81.38H938.315V98ZM940.445 79.4C941.915 79.4 943.025 78.32 943.025 76.94C943.025 75.56 941.915 74.48 940.445 74.48C938.945 74.48 937.865 75.56 937.865 76.94C937.865 78.32 938.945 79.4 940.445 79.4ZM944.865 89.63C944.865 94.82 948.225 98.27 952.455 98.27C955.065 98.27 956.925 97.07 957.915 95.54V98H962.175V75.8H957.915V83.69C956.775 82.13 954.675 81.11 952.485 81.11C948.225 81.11 944.865 84.44 944.865 89.63ZM957.945 89.69C957.945 92.84 955.845 94.58 953.535 94.58C951.285 94.58 949.155 92.78 949.155 89.63C949.155 86.48 951.285 84.8 953.535 84.8C955.845 84.8 957.945 86.54 957.945 89.69ZM981.607 89.69C981.607 84.44 977.857 81.11 973.057 81.11C968.257 81.11 964.507 84.44 964.507 89.69C964.507 94.91 968.137 98.27 972.937 98.27C977.767 98.27 981.607 94.91 981.607 89.69ZM968.767 89.69C968.767 86.36 970.777 84.77 972.997 84.77C975.217 84.77 977.287 86.36 977.287 89.69C977.287 92.99 975.157 94.61 972.937 94.61C970.687 94.61 968.767 92.99 968.767 89.69ZM989.316 89.63C989.316 94.82 992.676 98.27 996.876 98.27C999.516 98.27 1001.41 97.01 1002.4 95.57V98H1006.63V81.38H1002.4V83.75C1001.41 82.37 999.576 81.11 996.906 81.11C992.676 81.11 989.316 84.44 989.316 89.63ZM1002.4 89.69C1002.4 92.84 1000.3 94.58 997.986 94.58C995.736 94.58 993.606 92.78 993.606 89.63C993.606 86.48 995.736 84.8 997.986 84.8C1000.3 84.8 1002.4 86.54 1002.4 89.69ZM1020.64 86.57V80.48H1023.97C1026.34 80.48 1027.39 81.62 1027.39 83.54C1027.39 85.4 1026.34 86.57 1023.97 86.57H1020.64ZM1031.71 83.54C1031.71 79.91 1029.19 77.06 1024.15 77.06H1016.44V98H1020.64V89.96H1024.15C1029.55 89.96 1031.71 86.72 1031.71 83.54ZM1050.02 89.69C1050.02 84.44 1046.27 81.11 1041.47 81.11C1036.67 81.11 1032.92 84.44 1032.92 89.69C1032.92 94.91 1036.55 98.27 1041.35 98.27C1046.18 98.27 1050.02 94.91 1050.02 89.69ZM1037.18 89.69C1037.18 86.36 1039.19 84.77 1041.41 84.77C1043.63 84.77 1045.7 86.36 1045.7 89.69C1045.7 92.99 1043.57 94.61 1041.35 94.61C1039.1 94.61 1037.18 92.99 1037.18 89.69ZM1051.3 89.69C1051.3 94.91 1054.72 98.27 1059.52 98.27C1063.66 98.27 1066.45 95.93 1067.35 92.39H1062.82C1062.31 93.89 1061.23 94.67 1059.49 94.67C1057.15 94.67 1055.59 92.93 1055.59 89.69C1055.59 86.45 1057.15 84.68 1059.49 84.68C1061.23 84.68 1062.34 85.58 1062.82 86.99H1067.35C1066.45 83.27 1063.66 81.11 1059.52 81.11C1054.72 81.11 1051.3 84.47 1051.3 89.69ZM1069.71 98H1073.91V90.92L1079.55 98H1085.01L1077.63 89.72L1084.95 81.38H1079.49L1073.91 88.43V75.8H1069.71V98ZM1093.65 84.56C1095.81 84.56 1097.55 85.94 1097.61 88.13H1089.72C1090.05 85.85 1091.64 84.56 1093.65 84.56ZM1101.54 92.78H1097.01C1096.47 93.89 1095.48 94.79 1093.68 94.79C1091.58 94.79 1089.9 93.41 1089.69 90.95H1101.84C1101.93 90.41 1101.96 89.87 1101.96 89.33C1101.96 84.38 1098.57 81.11 1093.77 81.11C1088.85 81.11 1085.43 84.44 1085.43 89.69C1085.43 94.91 1088.94 98.27 1093.77 98.27C1097.88 98.27 1100.64 95.84 1101.54 92.78ZM1104.96 92.84C1104.96 96.65 1107.09 98 1110.27 98H1112.91V94.46H1110.96C1109.64 94.46 1109.19 93.98 1109.19 92.87V84.83H1112.91V81.38H1109.19V77.27H1104.96V81.38H1102.98V84.83H1104.96V92.84ZM1115.21 98H1119.41V89.15H1126.1V85.82H1119.41V80.45H1128.14V77.06H1115.21V98ZM1130.4 98H1134.6V77.06H1130.4V98ZM1138.69 92.84C1138.69 96.65 1140.82 98 1144 98H1146.64V94.46H1144.69C1143.37 94.46 1142.92 93.98 1142.92 92.87V84.83H1146.64V81.38H1142.92V77.27H1138.69V81.38H1136.71V84.83H1138.69V92.84ZM1153.35 95.75C1153.35 94.37 1152.27 93.29 1150.8 93.29C1149.27 93.29 1148.19 94.37 1148.19 95.75C1148.19 97.13 1149.27 98.21 1150.8 98.21C1152.27 98.21 1153.35 97.13 1153.35 95.75ZM1160.42 95.75C1160.42 94.37 1159.34 93.29 1157.87 93.29C1156.34 93.29 1155.26 94.37 1155.26 95.75C1155.26 97.13 1156.34 98.21 1157.87 98.21C1159.34 98.21 1160.42 97.13 1160.42 95.75ZM1167.5 95.75C1167.5 94.37 1166.42 93.29 1164.95 93.29C1163.42 93.29 1162.34 94.37 1162.34 95.75C1162.34 97.13 1163.42 98.21 1164.95 98.21C1166.42 98.21 1167.5 97.13 1167.5 95.75Z" fill="white"/>
</svg>
