<svg width="50" height="51" viewBox="0 0 50 51" fill="none" xmlns="http://www.w3.org/2000/svg">
<path d="M33 0C33.8639 0.248473 34.6337 0.750024 35.21 1.44C36.38 2.63 37.57 3.79 38.78 5L41.31 2.46L41.79 2C41.9297 1.84557 42.1002 1.72214 42.2905 1.63766C42.4808 1.55318 42.6867 1.50954 42.895 1.50954C43.1032 1.50954 43.3091 1.55318 43.4994 1.63766C43.6898 1.72214 43.8603 1.84557 44 2C45.35 3.33 46.68 4.66 48 6C48.1602 6.13612 48.2889 6.30545 48.3771 6.49626C48.4654 6.68706 48.5111 6.89477 48.5111 7.105C48.5111 7.31523 48.4654 7.52294 48.3771 7.71374C48.2889 7.90455 48.1602 8.07388 48 8.21C47 9.21 46 10.21 44.85 11.36C45.0221 11.437 45.1863 11.5307 45.34 11.64C46.57 12.85 47.79 14.06 49 15.3C49.5555 15.808 49.8934 16.511 49.9431 17.2622C49.9927 18.0135 49.7503 18.7548 49.2665 19.3316C48.7826 19.9083 48.0947 20.2759 47.3463 20.3576C46.5979 20.4393 45.8469 20.2288 45.25 19.77C45.0708 19.6307 44.9005 19.4804 44.74 19.32L30.7 5.21C30.1736 4.76477 29.8167 4.15184 29.6892 3.47434C29.5617 2.79683 29.6715 2.09609 30 1.49C30.3458 0.864511 30.9185 0.395605 31.6 0.18C31.75 0.18 31.9 0.06 32.04 0H33Z" fill="#8BE855"/>
<path d="M0 32.24C0.0768223 31.7663 0.263306 31.317 0.544575 30.9281C0.825844 30.5392 1.19411 30.2214 1.62 30C2.11938 29.7351 2.68607 29.6241 3.2485 29.6811C3.81093 29.738 4.34387 29.9604 4.78 30.32C4.94383 30.4553 5.1007 30.5989 5.25 30.75L19.3 44.79C19.8145 45.2324 20.1639 45.8362 20.291 46.5028C20.4182 47.1693 20.3156 47.8593 20 48.46C19.8032 48.8455 19.5216 49.1813 19.1762 49.4421C18.8309 49.7029 18.4308 49.8819 18.0062 49.9657C17.5816 50.0494 17.1436 50.0358 16.725 49.9257C16.3065 49.8156 15.9184 49.6119 15.59 49.33C14.37 48.25 13.26 47.06 12.11 45.91C11.82 45.63 11.56 45.32 11.21 44.91C10.73 45.43 10.32 45.91 9.89 46.33C9.31 46.92 8.72 47.52 8.12 48.09C7.99369 48.2271 7.84129 48.3375 7.67173 48.4148C7.50218 48.4922 7.31889 48.5349 7.13261 48.5405C6.94633 48.5461 6.76081 48.5144 6.58693 48.4474C6.41305 48.3803 6.2543 48.2792 6.12 48.15C4.68 46.74 3.25 45.32 1.85 43.87C1.71848 43.7298 1.61747 43.5639 1.55336 43.3826C1.48925 43.2014 1.46343 43.0089 1.47752 42.8171C1.49162 42.6254 1.54533 42.4387 1.63526 42.2688C1.72519 42.0989 1.84939 41.9495 2 41.83C2.87 40.94 3.76 40.06 4.65 39.17C4.77 39.06 4.91 38.98 5.07 38.86L4.68 38.44C3.61 37.37 2.55 36.29 1.47 35.23C0.743036 34.6393 0.227238 33.8288 0 32.92L0 32.24Z" fill="#8BE855"/>
<path d="M45.85 25.74C45.8602 26.299 45.7027 26.8482 45.3979 27.3169C45.0932 27.7857 44.6551 28.1524 44.14 28.37C43.6591 28.6081 43.1192 28.7009 42.5864 28.637C42.0536 28.573 41.5509 28.3551 41.14 28.01C40.972 27.8832 40.8148 27.7427 40.67 27.59C34.5767 21.51 28.4934 15.4333 22.42 9.35997C21.8906 8.90731 21.5352 8.28455 21.4148 7.5985C21.2944 6.91245 21.4164 6.20587 21.76 5.59997C21.968 5.24931 22.2474 4.94627 22.58 4.71049C22.9126 4.47472 23.2911 4.31147 23.6909 4.23133C24.0906 4.15119 24.5028 4.15595 24.9006 4.24529C25.2984 4.33464 25.6729 4.50658 26 4.74997C26.1925 4.89921 26.3761 5.05948 26.55 5.22997L44.77 23.42C45.1019 23.71 45.3694 24.0662 45.5554 24.4658C45.7414 24.8653 45.8417 25.2993 45.85 25.74V25.74Z" fill="#8BE855"/>
<path d="M7.09004 21.37C7.52228 21.3764 7.94841 21.4731 8.34107 21.6539C8.73372 21.8347 9.08421 22.0957 9.37004 22.42L20.37 33.42L27.65 40.7C28.2614 41.184 28.6554 41.8911 28.7454 42.6656C28.8354 43.4401 28.6141 44.2187 28.13 44.83C27.646 45.4413 26.939 45.8353 26.1644 45.9253C25.3899 46.0154 24.6114 45.794 24 45.31C23.8311 45.1842 23.6707 45.0472 23.52 44.9L5.15004 26.5C4.65803 26.0632 4.32736 25.4735 4.21126 24.8259C4.09517 24.1783 4.20041 23.5105 4.51004 22.93C4.75305 22.4562 5.12306 22.0594 5.57869 21.7839C6.03432 21.5084 6.55761 21.3651 7.09004 21.37V21.37Z" fill="#8BE855"/>
<path d="M17.53 26.3301L26.37 17.5701L32.44 23.6401L23.6 32.4001L17.53 26.3301Z" fill="#8BE855"/>
</svg>
