<svg width="45" height="47" viewBox="0 0 45 47" fill="none" xmlns="http://www.w3.org/2000/svg">
<path d="M24.5142 46.7689C24.4644 46.7379 24.4106 46.714 24.3542 46.6978C23.9141 46.6082 23.5 46.4207 23.1424 46.149C22.7849 45.8774 22.4932 45.5286 22.289 45.1287C22.0847 44.7288 21.9733 44.2881 21.9628 43.8391C21.9524 43.3902 22.0433 42.9448 22.2287 42.5358C23.118 40.2325 24.0785 37.938 24.9945 35.6436C25.1456 35.2612 25.4391 34.8343 25.368 34.5053C25.2968 34.1762 24.8166 33.9806 24.4787 33.7405L20.4501 30.5478C20.3167 30.4322 20.1655 30.3255 19.9965 30.201C19.3295 31.3304 18.6536 32.4154 18.0311 33.527C17.7346 34.1022 17.2756 34.5774 16.7111 34.8936C16.1466 35.2099 15.5016 35.3532 14.8563 35.3057C10.9789 35.3057 7.09255 35.3057 3.21514 35.3057C2.52106 35.3494 1.83304 35.1533 1.26636 34.7501C0.699683 34.347 0.288789 33.7613 0.102538 33.0913C-0.01616 32.6513 -0.03204 32.1899 0.0561263 31.7429C0.144293 31.2958 0.334141 30.875 0.610981 30.513C0.88782 30.1511 1.24423 29.8577 1.65262 29.6555C2.06101 29.4534 2.51044 29.3479 2.96613 29.3473C6.34553 29.3473 9.72493 29.3473 13.1043 29.3473C13.2286 29.3664 13.3557 29.3457 13.4676 29.2882C13.5794 29.2307 13.6701 29.1393 13.7268 29.0271C16.4837 24.1892 19.2465 19.3573 22.0153 14.5313C22.0686 14.4423 22.1131 14.3534 22.1842 14.22H21.7485C20.1477 14.22 18.5469 14.22 16.9551 14.22C16.8231 14.2018 16.6887 14.2276 16.573 14.2935C16.4572 14.3595 16.3664 14.4618 16.3148 14.5846C15.4254 16.2743 14.4917 17.9551 13.549 19.627C13.2516 20.1557 12.8012 20.582 12.2571 20.85C11.7129 21.1179 11.1004 21.215 10.5001 21.1284C9.8997 21.0418 9.33959 20.7756 8.89333 20.3648C8.44707 19.954 8.13553 19.4178 7.99965 18.8267C7.79467 18.0987 7.88411 17.3193 8.24866 16.6567C9.53817 14.3089 10.8188 11.9611 12.1261 9.63114C12.3799 9.1597 12.7615 8.76941 13.2272 8.50513C13.6928 8.24084 14.2236 8.11328 14.7584 8.13709C17.96 8.13709 21.1526 8.13709 24.3542 8.13709C24.4561 8.12961 24.5576 8.15609 24.6429 8.2124C24.7281 8.26872 24.7924 8.35169 24.8255 8.44836C25.4522 9.74492 26.4306 10.8393 27.6493 11.6066C28.8679 12.374 30.2776 12.7834 31.7177 12.7882C31.836 12.7847 31.953 12.8145 32.0552 12.8742C32.1574 12.934 32.2408 13.0213 32.2957 13.1262C33.1851 14.4868 34.0744 15.7941 34.9637 17.1814C35.0437 17.3059 35.1327 17.4304 35.2483 17.5905C35.7641 17.3148 36.2621 17.0302 36.7601 16.7546C37.8895 16.132 39.0101 15.4828 40.1573 14.887C40.7789 14.589 41.4844 14.5144 42.1546 14.6758C42.8249 14.8372 43.419 15.2248 43.8368 15.7732C44.2546 16.3216 44.4706 16.9972 44.4483 17.6863C44.426 18.3753 44.1669 19.0356 43.7145 19.5559C43.4574 19.8408 43.1573 20.0838 42.8252 20.2762C40.5249 21.5746 38.2127 22.8612 35.8886 24.1359C35.5435 24.3554 35.1574 24.5025 34.7537 24.5681C34.35 24.6337 33.9372 24.6165 33.5403 24.5175C33.1435 24.4185 32.771 24.2398 32.4454 23.9922C32.1198 23.7447 31.848 23.4335 31.6465 23.0776C30.8373 21.8592 30.0458 20.6409 29.2454 19.4136L29.1298 19.2802L24.9678 26.3947L25.6437 26.9372L30.8373 31.037C31.4439 31.4472 31.8811 32.0637 32.0675 32.7719C32.254 33.4801 32.1771 34.2319 31.8511 34.8877C30.6149 37.9736 29.3343 41.0506 28.1426 44.1544C27.9809 44.7844 27.6581 45.3616 27.2059 45.8294C26.7538 46.2971 26.1879 46.6393 25.5636 46.8223L24.5142 46.7689Z" fill="black"/>
<path d="M36.7956 4.99796C36.7991 5.98959 36.5086 6.96 35.9608 7.78658C35.4129 8.61316 34.6324 9.25881 33.7178 9.64193C32.8031 10.0251 31.7955 10.1285 30.8221 9.93911C29.8487 9.74974 28.9533 9.27609 28.249 8.57801C27.5447 7.87993 27.0631 6.98874 26.8651 6.01707C26.6672 5.0454 26.7616 4.03685 27.1367 3.11886C27.5117 2.20086 28.1504 1.41463 28.9721 0.85951C29.7938 0.304388 30.7616 0.00528894 31.7532 8.09111e-06C33.0836 -0.0023756 34.3608 0.522016 35.3056 1.45856C36.2505 2.3951 36.7862 3.66762 36.7956 4.99796Z" fill="black"/>
</svg>
