<svg width="32" height="30" viewBox="0 0 32 30" fill="none" xmlns="http://www.w3.org/2000/svg">
<path d="M4.84007 28.1627C4.78525 28.3827 4.78427 28.6114 4.83719 28.8318C4.89011 29.0522 4.99556 29.2585 5.14564 29.4353C5.29572 29.6121 5.48654 29.7547 5.70379 29.8525C5.92104 29.9503 6.15908 30.0007 6.40008 30C6.71613 30.0001 7.02513 29.9124 7.28808 29.748L16.0001 24.3036L24.7122 29.748C24.9847 29.9176 25.3061 30.005 25.6332 29.9982C25.9603 29.9915 26.2773 29.8911 26.5416 29.7104C26.806 29.5297 27.005 29.2775 27.1118 28.9877C27.2187 28.6979 27.2283 28.3843 27.1394 28.0892L24.213 18.4901L31.4706 12.3677C31.7031 12.1715 31.8691 11.9158 31.9481 11.6321C32.0271 11.3484 32.0157 11.0492 31.9153 10.7715C31.8148 10.4938 31.6298 10.2498 31.3829 10.0697C31.1361 9.88956 30.8384 9.78119 30.5266 9.75799L21.405 9.07706L17.4577 0.886364C17.332 0.622558 17.1276 0.398494 16.869 0.241214C16.6105 0.0839335 16.3089 0.000158803 16.0007 2.25546e-07C15.6924 -0.000158352 15.3907 0.083306 15.132 0.24032C14.8733 0.397335 14.6685 0.621188 14.5425 0.884864L10.5953 9.07706L1.47365 9.75649C1.16718 9.77925 0.874188 9.88429 0.629734 10.0591C0.385279 10.2338 0.199712 10.4709 0.0952316 10.7419C-0.00924866 11.013 -0.0282177 11.3065 0.0405942 11.5874C0.109406 11.8682 0.263085 12.1246 0.483245 12.3257L7.22568 18.4856L4.84007 28.1627ZM16.0001 5.14594L19.2674 11.9268L20.2082 11.9973H20.2098L26.565 12.4697L21.3314 16.8853L21.3298 16.8883L20.589 17.5122L20.8626 18.4076V18.4121L22.8674 24.989L16.0001 20.6979V5.14594Z" fill="#020E12"/>
</svg>
