<svg width="32" height="31" viewBox="0 0 32 31" fill="none" xmlns="http://www.w3.org/2000/svg">
<path d="M0.662283 14.8755L15.2016 0.331245C15.3063 0.226241 15.4306 0.142935 15.5675 0.0860961C15.7044 0.0292569 15.8511 0 15.9993 0C16.1475 0 16.2943 0.0292569 16.4312 0.0860961C16.568 0.142935 16.6924 0.226241 16.7971 0.331245L31.3364 14.8755C31.76 15.2995 32 15.8755 32 16.4762C32 17.7235 30.9869 18.7377 29.7409 18.7377H28.209V29.1158C28.209 29.7413 27.7042 30.2466 27.0794 30.2466H18.2584V22.3313H14.305V30.2466H4.91924C4.29446 30.2466 3.7897 29.7413 3.7897 29.1158V18.7377H2.25776C1.65769 18.7377 1.08233 18.5009 0.658754 18.0734C-0.220169 17.19 -0.220173 15.7589 0.662283 14.8755Z" fill="#020E12"/>
</svg>
