<svg width="30" height="32" viewBox="0 0 30 32" fill="none" xmlns="http://www.w3.org/2000/svg">
<path d="M16.5451 31.5653C16.5115 31.5443 16.4751 31.5282 16.437 31.5173C16.1401 31.4568 15.8606 31.3302 15.6192 31.1469C15.3779 30.9636 15.181 30.7282 15.0432 30.4583C14.9054 30.1884 14.8301 29.8909 14.8231 29.5879C14.8161 29.285 14.8774 28.9843 15.0025 28.7083C15.6028 27.1537 16.251 25.6052 16.8692 24.0566C16.9712 23.7985 17.1693 23.5104 17.1213 23.2883C17.0733 23.0663 16.7492 22.9342 16.5211 22.7722L13.8021 20.6174C13.7121 20.5394 13.61 20.4673 13.496 20.3833C13.0458 21.1456 12.5897 21.8778 12.1695 22.6281C11.9694 23.0163 11.6596 23.337 11.2786 23.5505C10.8976 23.7639 10.4623 23.8606 10.0268 23.8285C7.40983 23.8285 4.78689 23.8285 2.16995 23.8285C1.70151 23.8581 1.23715 23.7257 0.854689 23.4536C0.472228 23.1815 0.194909 22.7862 0.0692044 22.334C-0.0109067 22.0371 -0.0216244 21.7257 0.0378806 21.4239C0.0973856 21.1222 0.225518 20.8382 0.412362 20.5939C0.599205 20.3496 0.83975 20.1516 1.11538 20.0152C1.39101 19.8787 1.69434 19.8075 2.00189 19.8071C4.28271 19.8071 6.56352 19.8071 8.84434 19.8071C8.92821 19.82 9.01402 19.8061 9.08949 19.7673C9.16496 19.7285 9.22621 19.6668 9.26449 19.591C11.1252 16.3259 12.9898 13.0647 14.8585 9.80752C14.8945 9.7475 14.9245 9.68748 14.9725 9.59745H14.6784C13.598 9.59745 12.5176 9.59745 11.4433 9.59745C11.3542 9.58513 11.2635 9.60257 11.1854 9.64707C11.1072 9.69157 11.046 9.76064 11.0111 9.84354C10.4109 10.9839 9.78067 12.1183 9.14444 13.2468C8.94373 13.6036 8.63978 13.8913 8.27251 14.0721C7.90524 14.253 7.49186 14.3185 7.08667 14.2601C6.68148 14.2016 6.30346 14.022 6.00226 13.7447C5.70107 13.4674 5.49081 13.1055 5.39911 12.7066C5.26076 12.2152 5.32112 11.6892 5.56717 11.242C6.43748 9.65747 7.30179 8.0729 8.1841 6.50034C8.35539 6.18216 8.61297 5.91875 8.92724 5.74037C9.24151 5.562 9.59973 5.47591 9.96074 5.49198C12.1215 5.49198 14.2763 5.49198 16.437 5.49198C16.5058 5.48693 16.5744 5.5048 16.6319 5.54281C16.6895 5.58082 16.7328 5.63682 16.7552 5.70206C17.1781 6.57714 17.8385 7.31574 18.661 7.83363C19.4834 8.35151 20.4349 8.62785 21.4068 8.6311C21.4867 8.62872 21.5656 8.64884 21.6346 8.68917C21.7036 8.7295 21.7599 8.78841 21.797 8.85919C22.3972 9.77751 22.9974 10.6598 23.5976 11.5962C23.6516 11.6802 23.7116 11.7642 23.7897 11.8723C24.1378 11.6862 24.4739 11.4941 24.81 11.3081C25.5723 10.8879 26.3286 10.4498 27.1029 10.0476C27.5224 9.84646 27.9985 9.79612 28.4509 9.90507C28.9033 10.014 29.3042 10.2756 29.5862 10.6457C29.8682 11.0158 30.014 11.4718 29.9989 11.9369C29.9839 12.4019 29.809 12.8476 29.5037 13.1987C29.3301 13.391 29.1276 13.555 28.9035 13.6849C27.3509 14.5612 25.7904 15.4295 24.2218 16.2898C23.9889 16.438 23.7283 16.5373 23.4559 16.5816C23.1834 16.6258 22.9048 16.6142 22.637 16.5474C22.3691 16.4806 22.1177 16.36 21.898 16.1929C21.6782 16.0258 21.4948 15.8158 21.3588 15.5756C20.8126 14.7533 20.2784 13.931 19.7382 13.1027L19.6602 13.0127L16.8512 17.8144L17.3074 18.1805L20.8126 20.9475C21.2221 21.2244 21.5171 21.6404 21.6429 22.1184C21.7688 22.5964 21.7169 23.1038 21.4969 23.5464C20.6626 25.6292 19.7982 27.7059 18.994 29.8007C18.8848 30.2259 18.6669 30.6155 18.3618 30.9312C18.0566 31.2468 17.6747 31.4778 17.2533 31.6013L16.5451 31.5653Z" fill="black"/>
<path d="M24.8339 3.37321C24.8362 4.04248 24.6402 4.69743 24.2704 5.2553C23.9007 5.81317 23.3739 6.24893 22.7566 6.50751C22.1393 6.76609 21.4592 6.83588 20.8022 6.70808C20.1453 6.58027 19.5409 6.26059 19.0656 5.78945C18.5903 5.3183 18.2653 4.71683 18.1316 4.06103C17.998 3.40523 18.0618 2.72454 18.3149 2.10497C18.568 1.4854 18.9991 0.95476 19.5536 0.580099C20.1082 0.205437 20.7614 0.0035696 21.4307 5.46083e-06C22.3286 -0.00160334 23.1906 0.352317 23.8283 0.984406C24.466 1.61649 24.8275 2.47534 24.8339 3.37321V3.37321Z" fill="black"/>
</svg>
