<svg width="51" height="50" viewBox="0 0 51 50" fill="none" xmlns="http://www.w3.org/2000/svg">
<rect width="50.625" height="50" rx="10" fill="#6AE056"/>
<path d="M37.585 12.6666L38.3255 13.3992C39.3459 14.4098 39.1915 16.2013 37.9778 17.4007L22.7072 32.5067L17.7596 34.297C17.1383 34.523 16.5334 34.23 16.4104 33.6452C16.3688 33.4331 16.3884 33.2137 16.4669 33.012L18.3118 28.0756L33.5398 13.0105C34.7535 11.8112 36.5646 11.6572 37.585 12.6679V12.6666ZM22.0407 14.1689C22.2055 14.1689 22.3687 14.201 22.521 14.2634C22.6733 14.3258 22.8117 14.4173 22.9282 14.5326C23.0447 14.6478 23.1372 14.7847 23.2003 14.9353C23.2633 15.086 23.2958 15.2474 23.2958 15.4105C23.2958 15.5735 23.2633 15.735 23.2003 15.8856C23.1372 16.0362 23.0447 16.1731 22.9282 16.2884C22.8117 16.4037 22.6733 16.4951 22.521 16.5575C22.3687 16.6199 22.2055 16.652 22.0407 16.652H17.0204C16.3546 16.652 15.7161 16.9136 15.2454 17.3793C14.7746 17.845 14.5102 18.4766 14.5102 19.1351V34.0338C14.5102 34.6924 14.7746 35.324 15.2454 35.7896C15.7161 36.2553 16.3546 36.5169 17.0204 36.5169H32.0814C32.7472 36.5169 33.3856 36.2553 33.8564 35.7896C34.3271 35.324 34.5916 34.6924 34.5916 34.0338V29.0676C34.5916 28.7383 34.7238 28.4225 34.9592 28.1897C35.1946 27.9568 35.5138 27.826 35.8467 27.826C36.1796 27.826 36.4988 27.9568 36.7342 28.1897C36.9696 28.4225 37.1018 28.7383 37.1018 29.0676V34.0338C37.1018 35.3509 36.5729 36.6141 35.6314 37.5455C34.6899 38.4768 33.4129 39 32.0814 39H17.0204C15.6889 39 14.4119 38.4768 13.4704 37.5455C12.5289 36.6141 12 35.3509 12 34.0338V19.1351C12 17.818 12.5289 16.5548 13.4704 15.6235C14.4119 14.6921 15.6889 14.1689 17.0204 14.1689H22.0407V14.1689Z" fill="white"/>
</svg>
