<svg width="32" height="21" viewBox="0 0 32 21" fill="none" xmlns="http://www.w3.org/2000/svg">
<path d="M4.8 9C6.565 9 8 7.65469 8 6C8 4.34531 6.565 3 4.8 3C3.035 3 1.6 4.34531 1.6 6C1.6 7.65469 3.035 9 4.8 9ZM27.2 9C28.965 9 30.4 7.65469 30.4 6C30.4 4.34531 28.965 3 27.2 3C25.435 3 24 4.34531 24 6C24 7.65469 25.435 9 27.2 9ZM28.8 10.5H25.6C24.72 10.5 23.925 10.8328 23.345 11.3719C25.36 12.4078 26.79 14.2781 27.1 16.5H30.4C31.285 16.5 32 15.8297 32 15V13.5C32 11.8453 30.565 10.5 28.8 10.5ZM16 10.5C19.095 10.5 21.6 8.15156 21.6 5.25C21.6 2.34844 19.095 0 16 0C12.905 0 10.4 2.34844 10.4 5.25C10.4 8.15156 12.905 10.5 16 10.5ZM19.84 12H19.425C18.385 12.4688 17.23 12.75 16 12.75C14.77 12.75 13.62 12.4688 12.575 12H12.16C8.98 12 6.4 14.4188 6.4 17.4V18.75C6.4 19.9922 7.475 21 8.8 21H23.2C24.525 21 25.6 19.9922 25.6 18.75V17.4C25.6 14.4188 23.02 12 19.84 12ZM8.655 11.3719C8.075 10.8328 7.28 10.5 6.4 10.5H3.2C1.435 10.5 0 11.8453 0 13.5V15C0 15.8297 0.715 16.5 1.6 16.5H4.895C5.21 14.2781 6.64 12.4078 8.655 11.3719Z" fill="#020E12"/>
</svg>
